<?xml version="1.0" encoding="UTF-8"?>
<svg version="1.1" xmlns="http://www.w3.org/2000/svg" width="168" height="170">
<path d="M0 0 C4.08690956 2.99077574 7.14326076 6.39200098 10.25 10.375 C10.95640625 10.21644531 11.6628125 10.05789062 12.390625 9.89453125 C20.97928405 8.33402353 28.74413889 8.70502892 36.25 13.375 C40.72387118 16.68177435 42.32447894 20.15527333 43.8046875 25.359375 C44.34425217 29.01326907 43.98782869 32.32280476 43.6875 36 C43.44431913 39.83932978 43.44431913 39.83932978 44.25 43.375 C47.00489267 46.17822412 49.74052704 47.80205476 53.1875 49.671875 C58.33548008 52.53478229 62.05351059 56.89829073 64.25 62.375 C65.24783508 69.38633679 65.33348201 75.74903697 61.375 81.8125 C58.55357971 85.41603885 55.80250128 87.2693912 51.8125 89.4375 C49.11925561 90.94978907 49.11925561 90.94978907 47.25 93.375 C46.69206709 97.79453158 46.87717498 101.89933838 47.1328125 106.328125 C47.38370869 111.19062642 46.5510476 114.69095792 43.25 118.375 C38.42134184 122.68834682 34.76468516 125.58139051 28.19921875 125.2265625 C27.19052734 125.19175781 26.18183594 125.15695313 25.14257812 125.12109375 C23.01654343 125.04076825 20.89126176 124.93682603 18.76757812 124.80859375 C13.25283392 124.47064048 13.25283392 124.47064048 8.54541016 126.84130859 C7.30729224 128.63286001 6.28573931 130.46176302 5.25 132.375 C-0.69655487 138.0287321 -5.57644666 139.68814783 -13.77734375 139.51953125 C-20.22672787 139.04700212 -25.15013989 135.70094647 -29.75 131.375 C-34.75 124.89307229 -34.75 124.89307229 -34.75 121.375 C-35.513125 121.54 -36.27625 121.705 -37.0625 121.875 C-45.88104562 123.070735 -55.00271419 123.44496635 -62.5703125 118.0859375 C-66.43037428 114.59882855 -67.64805234 111.53483074 -68.75 106.375 C-68.83208316 103.36505504 -68.65433093 100.3806889 -68.5 97.375 C-68.12521072 90.24859491 -68.12521072 90.24859491 -71.5 84.25 C-72.31597656 83.53263672 -72.31597656 83.53263672 -73.1484375 82.80078125 C-76.97850091 79.39109065 -78.95285908 74.4363003 -79.25 69.375 C-78.75534804 61.20526444 -73.35632977 54.9122863 -67.75 49.375 C-66.76 48.88 -66.76 48.88 -65.75 48.375 C-65.77618408 47.785979 -65.80236816 47.19695801 -65.8293457 46.59008789 C-65.93447971 43.87283954 -65.99868497 41.15602046 -66.0625 38.4375 C-66.10439453 37.51130859 -66.14628906 36.58511719 -66.18945312 35.63085938 C-66.33003952 27.6174347 -64.18864671 22.06349102 -58.70703125 16.18359375 C-50.55081595 10.9689643 -42.06561153 11.82702285 -32.75 12.375 C-32.63011719 11.60285156 -32.51023438 10.83070312 -32.38671875 10.03515625 C-31.25260955 5.29694542 -27.58398954 2.99605604 -23.8125 0.1875 C-15.80192347 -4.55345346 -8.02049569 -5.05845766 0 0 Z " fill="#000102" transform="translate(87.75,21.625)"/>
<path d="M0 0 C4.08690956 2.99077574 7.14326076 6.39200098 10.25 10.375 C10.95640625 10.21644531 11.6628125 10.05789062 12.390625 9.89453125 C20.97928405 8.33402353 28.74413889 8.70502892 36.25 13.375 C40.72387118 16.68177435 42.32447894 20.15527333 43.8046875 25.359375 C44.34425217 29.01326907 43.98782869 32.32280476 43.6875 36 C43.44431913 39.83932978 43.44431913 39.83932978 44.25 43.375 C47.00489267 46.17822412 49.74052704 47.80205476 53.1875 49.671875 C58.33548008 52.53478229 62.05351059 56.89829073 64.25 62.375 C65.24783508 69.38633679 65.33348201 75.74903697 61.375 81.8125 C58.55357971 85.41603885 55.80250128 87.2693912 51.8125 89.4375 C49.11925561 90.94978907 49.11925561 90.94978907 47.25 93.375 C46.69206709 97.79453158 46.87717498 101.89933838 47.1328125 106.328125 C47.38370869 111.19062642 46.5510476 114.69095792 43.25 118.375 C38.42134184 122.68834682 34.76468516 125.58139051 28.19921875 125.2265625 C27.19052734 125.19175781 26.18183594 125.15695313 25.14257812 125.12109375 C23.01654343 125.04076825 20.89126176 124.93682603 18.76757812 124.80859375 C13.25283392 124.47064048 13.25283392 124.47064048 8.54541016 126.84130859 C7.30729224 128.63286001 6.28573931 130.46176302 5.25 132.375 C-0.69655487 138.0287321 -5.57644666 139.68814783 -13.77734375 139.51953125 C-20.22672787 139.04700212 -25.15013989 135.70094647 -29.75 131.375 C-34.75 124.89307229 -34.75 124.89307229 -34.75 121.375 C-35.513125 121.54 -36.27625 121.705 -37.0625 121.875 C-45.88104562 123.070735 -55.00271419 123.44496635 -62.5703125 118.0859375 C-66.43037428 114.59882855 -67.64805234 111.53483074 -68.75 106.375 C-68.83208316 103.36505504 -68.65433093 100.3806889 -68.5 97.375 C-68.12521072 90.24859491 -68.12521072 90.24859491 -71.5 84.25 C-72.31597656 83.53263672 -72.31597656 83.53263672 -73.1484375 82.80078125 C-76.97850091 79.39109065 -78.95285908 74.4363003 -79.25 69.375 C-78.75534804 61.20526444 -73.35632977 54.9122863 -67.75 49.375 C-66.76 48.88 -66.76 48.88 -65.75 48.375 C-65.77618408 47.785979 -65.80236816 47.19695801 -65.8293457 46.59008789 C-65.93447971 43.87283954 -65.99868497 41.15602046 -66.0625 38.4375 C-66.10439453 37.51130859 -66.14628906 36.58511719 -66.18945312 35.63085938 C-66.33003952 27.6174347 -64.18864671 22.06349102 -58.70703125 16.18359375 C-50.55081595 10.9689643 -42.06561153 11.82702285 -32.75 12.375 C-32.63011719 11.60285156 -32.51023438 10.83070312 -32.38671875 10.03515625 C-31.25260955 5.29694542 -27.58398954 2.99605604 -23.8125 0.1875 C-15.80192347 -4.55345346 -8.02049569 -5.05845766 0 0 Z M-34.58203125 41.96484375 C-36.77836499 44.40653369 -39.09698023 46.40852996 -41.625 48.5 C-52.8699189 58.45079137 -64.63411319 76.11672558 -65.92700195 91.47802734 C-65.99352832 93.90213159 -66.03477672 96.32513678 -66.0625 98.75 C-66.09150391 99.58789062 -66.12050781 100.42578125 -66.15039062 101.2890625 C-66.20719937 106.84757935 -65.44859854 109.96382743 -61.75 114.375 C-57.1503089 118.7326021 -53.07677136 120.15340273 -46.8125 120.75 C-30.00386305 120.21683789 -13.13158192 111.34557544 -0.75 100.375 C-4.18361902 104.01059661 -7.5473607 106.73613346 -11.75 109.375 C-8.56186399 113.01059369 -5.03195499 114.97833264 -0.6875 116.9375 C0.31168457 117.39201538 0.31168457 117.39201538 1.33105469 117.85571289 C11.58001693 122.40519817 22.42539805 125.72138482 33.5625 122.3125 C37.8529603 120.4585974 40.80293914 117.31231246 43.25 113.375 C45.94326903 105.95641466 44.70658575 96.0220752 43.25 88.375 C44.24 89.86 44.24 89.86 45.25 91.375 C52.50281457 87.18119566 59.51898881 82.21047072 62.0078125 73.8203125 C62.93800099 67.3089931 61.66662302 62.79576001 57.83984375 57.37890625 C53.53405085 51.99412033 48.44949704 48.36707901 42.25 45.375 C41.59 45.375 40.93 45.375 40.25 45.375 C40.40984375 44.51777344 40.5696875 43.66054687 40.734375 42.77734375 C41.94203821 34.80859637 42.68058265 26.37817903 38.25 19.375 C33.49932565 14.44463112 29.90878747 12.27628191 22.90795898 12.08203125 C0.49820486 11.87315553 -20.37635078 25.22335876 -34.58203125 41.96484375 Z " fill="#02050B" transform="translate(87.75,21.625)"/>
<path d="M0 0 C4.08690956 2.99077574 7.14326076 6.39200098 10.25 10.375 C10.95640625 10.21644531 11.6628125 10.05789062 12.390625 9.89453125 C20.97928405 8.33402353 28.74413889 8.70502892 36.25 13.375 C40.72387118 16.68177435 42.32447894 20.15527333 43.8046875 25.359375 C44.34425217 29.01326907 43.98782869 32.32280476 43.6875 36 C43.44431913 39.83932978 43.44431913 39.83932978 44.25 43.375 C47.00489267 46.17822412 49.74052704 47.80205476 53.1875 49.671875 C58.33548008 52.53478229 62.05351059 56.89829073 64.25 62.375 C65.24783508 69.38633679 65.33348201 75.74903697 61.375 81.8125 C58.55357971 85.41603885 55.80250128 87.2693912 51.8125 89.4375 C49.11925561 90.94978907 49.11925561 90.94978907 47.25 93.375 C46.69206709 97.79453158 46.87717498 101.89933838 47.1328125 106.328125 C47.38370869 111.19062642 46.5510476 114.69095792 43.25 118.375 C38.42134184 122.68834682 34.76468516 125.58139051 28.19921875 125.2265625 C27.19052734 125.19175781 26.18183594 125.15695313 25.14257812 125.12109375 C23.01654343 125.04076825 20.89126176 124.93682603 18.76757812 124.80859375 C13.25283392 124.47064048 13.25283392 124.47064048 8.54541016 126.84130859 C7.30729224 128.63286001 6.28573931 130.46176302 5.25 132.375 C-0.69655487 138.0287321 -5.57644666 139.68814783 -13.77734375 139.51953125 C-20.22672787 139.04700212 -25.15013989 135.70094647 -29.75 131.375 C-34.75 124.89307229 -34.75 124.89307229 -34.75 121.375 C-35.513125 121.54 -36.27625 121.705 -37.0625 121.875 C-45.88104562 123.070735 -55.00271419 123.44496635 -62.5703125 118.0859375 C-66.43037428 114.59882855 -67.64805234 111.53483074 -68.75 106.375 C-68.83208207 103.36509523 -68.65501994 100.38062947 -68.5 97.375 C-68.15577268 90.12609634 -68.15577268 90.12609634 -71.625 84 C-72.15867187 83.55914062 -72.69234375 83.11828125 -73.2421875 82.6640625 C-75.16207229 81.02271022 -75.88222736 79.75303078 -76.75 77.375 C-76.9453125 74.359375 -76.9453125 74.359375 -76.875 71.125 C-76.85695313 70.04734375 -76.83890625 68.9696875 -76.8203125 67.859375 C-76.79710938 67.03953125 -76.77390625 66.2196875 -76.75 65.375 C-76.42 65.375 -76.09 65.375 -75.75 65.375 C-75.63785156 66.426875 -75.63785156 66.426875 -75.5234375 67.5 C-74.5717441 74.36712104 -72.88262728 79.5073725 -67.75 84.375 C-67.09 84.375 -66.43 84.375 -65.75 84.375 C-65.13511719 82.87646484 -65.13511719 82.87646484 -64.5078125 81.34765625 C-63.9638927 80.04412431 -63.41960265 78.74074681 -62.875 77.4375 C-62.60558594 76.77814453 -62.33617187 76.11878906 -62.05859375 75.43945312 C-59.9765625 70.48828125 -59.9765625 70.48828125 -57.75 69.375 C-58.36917628 73.25188786 -59.55853699 76.40214562 -61.25 79.9375 C-64.35605863 86.44758218 -64.98083531 91.60706206 -65.0625 98.75 C-65.09150391 99.58789062 -65.12050781 100.42578125 -65.15039062 101.2890625 C-65.20717776 106.8454649 -64.44296802 109.95994326 -60.75 114.375 C-56.16702048 118.65244755 -50.66074522 119.87206454 -44.47265625 119.67578125 C-28.32408037 117.89179224 -12.84386995 110.09065115 -0.75 99.375 C-0.09 99.705 0.57 100.035 1.25 100.375 C0.55132812 100.92929688 -0.14734375 101.48359375 -0.8671875 102.0546875 C-2.23230469 103.14136719 -2.23230469 103.14136719 -3.625 104.25 C-4.98238281 105.32894531 -4.98238281 105.32894531 -6.3671875 106.4296875 C-8.75265176 108.31060474 -8.75265176 108.31060474 -10.75 110.375 C2.21759394 117.85770126 16.10252628 125.09904849 31.53125 121.90234375 C36.6857824 120.29636071 39.25444924 117.822939 42.25 113.375 C45.10219027 105.23101017 43.40752982 94.76709121 42.25 86.375 C43.735 88.355 43.735 88.355 45.25 90.375 C52.17387007 86.31299622 58.68975465 81.99012028 60.94140625 73.88671875 C61.869875 67.44607764 60.6739102 63.14646867 57.1328125 57.63671875 C53.89225166 53.31277515 50.82416145 51.74690197 45.875 49.625 C42.69921875 47.921875 42.69921875 47.921875 40.25 45.375 C39.10362884 40.60809165 39.68595092 35.7991275 40.12109375 30.96875 C40.50812108 25.64188668 39.30729242 21.76445943 35.75 17.6328125 C30.64079175 13.77429585 26.93166753 13.18173438 20.6875 13.1875 C19.97529297 13.18685547 19.26308594 13.18621094 18.52929688 13.18554688 C12.93091089 13.24127741 7.66882351 13.91608598 2.25 15.375 C2.91 14.715 3.57 14.055 4.25 13.375 C5.24 13.375 6.23 13.375 7.25 13.375 C3.72124003 7.53897389 -0.31837808 3.10723036 -6.75 0.375 C-12.23982687 -0.51245322 -16.97982029 0.26205419 -21.82421875 2.9609375 C-25.85661958 5.92184846 -29.50415513 9.88331025 -31.75 14.375 C-26.47 16.685 -21.19 18.995 -15.75 21.375 C-19.76984115 22.71494705 -21.37227925 21.58078256 -25.25 20 C-26.3946875 19.53851563 -27.539375 19.07703125 -28.71875 18.6015625 C-29.7190625 18.19679688 -30.719375 17.79203125 -31.75 17.375 C-38.01774683 15.28575106 -46.83284106 15.34612597 -53.21875 17.0234375 C-58.20154757 19.58039941 -60.58793529 24.04132687 -62.375 29.16796875 C-63.63027039 36.55575804 -61.97820631 45.00576216 -60.75 52.375 C-61.08 51.715 -61.41 51.055 -61.75 50.375 C-66.52365952 53.10280544 -69.29829609 56.07552937 -72.453125 60.5703125 C-73.75 62.375 -73.75 62.375 -75.75 64.375 C-76.44921875 62.66015625 -76.44921875 62.66015625 -76.75 60.375 C-75.45703125 58.12109375 -75.45703125 58.12109375 -73.5625 55.8125 C-72.95019531 55.04808594 -72.33789062 54.28367188 -71.70703125 53.49609375 C-69.75 51.375 -69.75 51.375 -67.64111328 50.02807617 C-65.55186131 48.55053024 -65.55186131 48.55053024 -65.37524414 46.24951172 C-65.42801514 45.44271973 -65.48078613 44.63592773 -65.53515625 43.8046875 C-65.57060547 42.9075 -65.60605469 42.0103125 -65.64257812 41.0859375 C-65.75447451 39.21842545 -65.87153042 37.35121426 -65.99414062 35.484375 C-66.2566924 28.52922989 -64.90509313 23.9962909 -60.75 18.375 C-56.65287607 13.98018829 -52.02190322 12.30050351 -46.09765625 12.01171875 C-41.63547418 11.94181167 -37.20408607 12.11299494 -32.75 12.375 C-32.63011719 11.60285156 -32.51023438 10.83070312 -32.38671875 10.03515625 C-31.25260955 5.29694542 -27.58398954 2.99605604 -23.8125 0.1875 C-15.80192347 -4.55345346 -8.02049569 -5.05845766 0 0 Z " fill="#011661" transform="translate(87.75,21.625)"/>
<path d="M0 0 C0.66 0 1.32 0 2 0 C2.31453125 1.24136719 2.6290625 2.48273437 2.953125 3.76171875 C3.3847625 5.40381793 3.81709067 7.04573566 4.25 8.6875 C4.45496094 9.50412109 4.65992188 10.32074219 4.87109375 11.16210938 C6.13384739 15.8878692 7.18512701 19.71631186 11 23 C14.33681728 24.42746578 17.74640791 25.38262507 21.25 26.3125 C22.18585938 26.57611328 23.12171875 26.83972656 24.0859375 27.11132812 C26.38668923 27.75694723 28.69070587 28.38577866 31 29 C31 29.66 31 30.32 31 31 C29.75863281 31.31453125 28.51726562 31.6290625 27.23828125 31.953125 C25.59618207 32.3847625 23.95426434 32.81709067 22.3125 33.25 C21.49587891 33.45496094 20.67925781 33.65992188 19.83789062 33.87109375 C15.09773923 35.13769291 11.45156226 36.31877105 8 40 C6.62708252 42.75979055 6.62708252 42.75979055 5.8125 45.8125 C5.49410156 46.86566406 5.17570312 47.91882813 4.84765625 49.00390625 C4.56792969 49.99261719 4.28820312 50.98132813 4 52 C3.77183594 52.77214844 3.54367188 53.54429688 3.30859375 54.33984375 C2.8557287 55.8884522 2.42453118 57.44338568 2 59 C1.34 59 0.68 59 0 59 C-0.15557373 58.44538086 -0.31114746 57.89076172 -0.47143555 57.31933594 C-1.19192219 54.7906261 -1.93935129 52.2706575 -2.6875 49.75 C-2.93177734 48.87730469 -3.17605469 48.00460938 -3.42773438 47.10546875 C-4.97024655 41.98979546 -6.08629592 38.67049135 -11 36 C-14.06093191 34.88432988 -17.15427783 34.04267139 -20.3125 33.25 C-21.56643555 32.91935547 -21.56643555 32.91935547 -22.84570312 32.58203125 C-24.89424225 32.04355811 -26.94675489 31.52024071 -29 31 C-29 30.34 -29 29.68 -29 29 C-28.41508789 28.84442627 -27.83017578 28.68885254 -27.22753906 28.52856445 C-24.56291906 27.80850401 -21.90680171 27.06086908 -19.25 26.3125 C-17.86941406 25.94608398 -17.86941406 25.94608398 -16.4609375 25.57226562 C-12.54747893 24.452109 -9.64248914 23.55302862 -6.53125 20.875 C-4.43954166 16.94771087 -3.32955848 12.98875971 -2.25 8.6875 C-2.02957031 7.85154297 -1.80914062 7.01558594 -1.58203125 6.15429688 C-1.04355811 4.10575775 -0.52024071 2.05324511 0 0 Z " fill="#010308" transform="translate(79,60)"/>
<path d="M0 0 C7.08880362 0.9747105 13.24710178 5.71082754 17.9375 11 C21.9369723 16.81741426 23.76093614 21.42344702 22.7578125 28.4453125 C20.26898881 36.83547072 13.25281457 41.80619566 6 46 C4 43 4 43 4 41 C3.34 41 2.68 41 2 41 C-1 35 -4 29 -7 23 C-7.66 23 -8.32 23 -9 23 C-10.35712166 24.55855981 -10.35712166 24.55855981 -11.625 26.5 C-12.07101563 27.1496875 -12.51703125 27.799375 -12.9765625 28.46875 C-13.31429687 28.9740625 -13.65203125 29.479375 -14 30 C-14 25.8998855 -11.94501732 23.41179921 -9.8125 20.0625 C-5.79050761 13.58477567 -2.65529309 7.16528839 0 0 Z " fill="#030711" transform="translate(127,67)"/>
<path d="M0 0 C2.62648608 1.11109046 4.87818717 2.24717814 7.3125 3.6875 C8.59866069 4.42337599 9.88641679 5.15647079 11.17578125 5.88671875 C11.80436035 6.24427246 12.43293945 6.60182617 13.08056641 6.97021484 C15.97561166 8.52342025 18.95871092 9.76066486 22 11 C20.9811284 16.99257377 16.17511134 21.22556706 11.625 24.9375 C6.40081926 27.05204935 1.29390444 27.71574243 -4.125 25.9375 C-12.14586655 22.38152934 -16.26364083 16.74821025 -20 9 C-18.89140625 8.51789063 -17.7828125 8.03578125 -16.640625 7.5390625 C-15.17705887 6.90109778 -13.71351856 6.26307384 -12.25 5.625 C-11.15558594 5.14933594 -11.15558594 5.14933594 -10.0390625 4.6640625 C-9.33007812 4.3546875 -8.62109375 4.0453125 -7.890625 3.7265625 C-7.24125977 3.44377441 -6.59189453 3.16098633 -5.92285156 2.86962891 C-3.94497864 2.01703043 -3.94497864 2.01703043 -1.97094727 0.80151367 C-1.32053467 0.53701416 -0.67012207 0.27251465 0 0 Z " fill="#000102" transform="translate(74,132)"/>
<path d="M0 0 C4.78862975 2.80871552 8.76113471 6.49330674 11.84375 11.12890625 C11.84375 11.78890625 11.84375 12.44890625 11.84375 13.12890625 C10.72355469 13.61101563 9.60335937 14.093125 8.44921875 14.58984375 C6.97649595 15.22771095 5.50384335 15.86574026 4.03125 16.50390625 C3.29326172 16.82101563 2.55527344 17.138125 1.79492188 17.46484375 C0.72661133 17.92890625 0.72661133 17.92890625 -0.36328125 18.40234375 C-1.0178833 18.68513184 -1.67248535 18.96791992 -2.34692383 19.25927734 C-4.41947799 20.20363538 -4.41947799 20.20363538 -7.15625 22.12890625 C-11.57598081 21.7775469 -15.28793073 20.4237397 -19.34375 18.69140625 C-20.88095703 18.04365234 -20.88095703 18.04365234 -22.44921875 17.3828125 C-25.15625 16.12890625 -25.15625 16.12890625 -28.15625 14.12890625 C-21.50766465 4.85322031 -12.54026113 -5.06608375 0 0 Z " fill="#000103" transform="translate(83.15625,21.87109375)"/>
<path d="M0 0 C4.08690956 2.99077574 7.14326076 6.39200098 10.25 10.375 C10.95511719 10.21515625 11.66023438 10.0553125 12.38671875 9.890625 C20.52277456 8.42546897 27.75399869 8.91530709 35.25 12.375 C35.25 13.365 35.25 14.355 35.25 15.375 C34.25613281 15.05015625 33.26226562 14.7253125 32.23828125 14.390625 C22.79131204 11.7030228 11.6272931 12.85034417 2.25 15.375 C2.91 14.715 3.57 14.055 4.25 13.375 C5.24 13.375 6.23 13.375 7.25 13.375 C3.72124003 7.53897389 -0.31837808 3.10723036 -6.75 0.375 C-12.23982687 -0.51245322 -16.97982029 0.26205419 -21.82421875 2.9609375 C-25.85661958 5.92184846 -29.50415513 9.88331025 -31.75 14.375 C-26.47 16.685 -21.19 18.995 -15.75 21.375 C-19.76984115 22.71494705 -21.37227925 21.58078256 -25.25 20 C-26.3946875 19.53851563 -27.539375 19.07703125 -28.71875 18.6015625 C-29.7190625 18.19679688 -30.719375 17.79203125 -31.75 17.375 C-38.01774683 15.28575106 -46.83284106 15.34612597 -53.21875 17.0234375 C-58.20154757 19.58039941 -60.58793529 24.04132687 -62.375 29.16796875 C-63.63027039 36.55575804 -61.97820631 45.00576216 -60.75 52.375 C-61.08 51.715 -61.41 51.055 -61.75 50.375 C-66.52365952 53.10280544 -69.29829609 56.07552937 -72.453125 60.5703125 C-73.75 62.375 -73.75 62.375 -75.75 64.375 C-76.44921875 62.66015625 -76.44921875 62.66015625 -76.75 60.375 C-75.45703125 58.12109375 -75.45703125 58.12109375 -73.5625 55.8125 C-72.95019531 55.04808594 -72.33789062 54.28367188 -71.70703125 53.49609375 C-69.75 51.375 -69.75 51.375 -67.64111328 50.02807617 C-65.55186131 48.55053024 -65.55186131 48.55053024 -65.37524414 46.24951172 C-65.42801514 45.44271973 -65.48078613 44.63592773 -65.53515625 43.8046875 C-65.57060547 42.9075 -65.60605469 42.0103125 -65.64257812 41.0859375 C-65.75447451 39.21842545 -65.87153042 37.35121426 -65.99414062 35.484375 C-66.2566924 28.52922989 -64.90509313 23.9962909 -60.75 18.375 C-56.65287607 13.98018829 -52.02190322 12.30050351 -46.09765625 12.01171875 C-41.63547418 11.94181167 -37.20408607 12.11299494 -32.75 12.375 C-32.63011719 11.60285156 -32.51023438 10.83070312 -32.38671875 10.03515625 C-31.25260955 5.29694542 -27.58398954 2.99605604 -23.8125 0.1875 C-15.80192347 -4.55345346 -8.02049569 -5.05845766 0 0 Z " fill="#113079" transform="translate(87.75,21.625)"/>
<path d="M0 0 C0.33 0 0.66 0 1 0 C1.07476562 0.70125 1.14953125 1.4025 1.2265625 2.125 C2.1782559 8.99212104 3.86737272 14.1323725 9 19 C9.66 19 10.32 19 11 19 C11.61488281 17.50146484 11.61488281 17.50146484 12.2421875 15.97265625 C12.7861073 14.66912431 13.33039735 13.36574681 13.875 12.0625 C14.14441406 11.40314453 14.41382813 10.74378906 14.69140625 10.06445312 C16.7734375 5.11328125 16.7734375 5.11328125 19 4 C18.38082372 7.87688786 17.19146301 11.02714562 15.5 14.5625 C12.39394137 21.07258218 11.76916469 26.23206206 11.6875 33.375 C11.65849609 34.21289062 11.62949219 35.05078125 11.59960938 35.9140625 C11.54282224 41.4704649 12.30703198 44.58494326 16 49 C20.58297952 53.27744755 26.08925478 54.49706454 32.27734375 54.30078125 C48.42591963 52.51679224 63.90613005 44.71565115 76 34 C76.66 34.33 77.32 34.66 78 35 C76.95199219 35.83144531 76.95199219 35.83144531 75.8828125 36.6796875 C74.97273438 37.40414062 74.06265625 38.12859375 73.125 38.875 C72.22007813 39.59429687 71.31515625 40.31359375 70.3828125 41.0546875 C67.99734824 42.93560474 67.99734824 42.93560474 66 45 C66.99 45.99 67.98 46.98 69 48 C68.16726562 47.60296875 67.33453125 47.2059375 66.4765625 46.796875 C61.93070485 45.75490313 59.31753214 47.16878284 55.375 49.25 C54.72015625 49.57613281 54.0653125 49.90226562 53.390625 50.23828125 C51.584809 51.14118925 49.79185414 52.06969198 48 53 C47.20851562 53.36609375 46.41703125 53.7321875 45.6015625 54.109375 C43.81088551 54.90794388 43.81088551 54.90794388 43 57 C19.7958747 57.67584831 19.7958747 57.67584831 12.5625 51.25 C9.21556761 47.93167387 8.06834047 43.50600784 7.94165039 38.86035156 C8.01739177 36.57161221 8.13204853 34.2869214 8.25 32 C8.59422732 24.75109634 8.59422732 24.75109634 5.125 18.625 C4.59132813 18.18414062 4.05765625 17.74328125 3.5078125 17.2890625 C1.58792771 15.64771022 0.86777264 14.37803078 0 12 C-0.1953125 8.984375 -0.1953125 8.984375 -0.125 5.75 C-0.10695313 4.67234375 -0.08890625 3.5946875 -0.0703125 2.484375 C-0.04710937 1.66453125 -0.02390625 0.8446875 0 0 Z " fill="#0C2F85" transform="translate(11,87)"/>
<path d="M0 0 C5.02212682 3.34808455 6.99786256 6.1732087 8.58984375 11.984375 C9.08564089 15.62966447 8.73304892 18.96165284 8.4375 22.625 C8.19431913 26.46432978 8.19431913 26.46432978 9 30 C11.75249751 32.80078694 14.49572234 34.42933228 17.93359375 36.30859375 C21.93466069 38.51555169 24.72781917 41.02594668 27 45 C28.16653266 49.66613062 28.09789568 54.20311148 28 59 C27.67 59 27.34 59 27 59 C26.92523438 58.3709375 26.85046875 57.741875 26.7734375 57.09375 C25.54661011 49.10734426 22.86327177 44.08939872 16.5234375 39.01953125 C12.80416327 36.35898848 9.10263259 34.0150816 5 32 C5.05220703 30.06447266 5.05220703 30.06447266 5.10546875 28.08984375 C5.13362342 26.37240894 5.16092177 24.65495993 5.1875 22.9375 C5.21263672 22.08994141 5.23777344 21.24238281 5.26367188 20.36914062 C5.34884033 13.01626383 3.83604921 7.75720144 -1 2 C-0.67 1.34 -0.34 0.68 0 0 Z " fill="#0F2452" transform="translate(123,35)"/>
<path d="M0 0 C0.66 0.33 1.32 0.66 2 1 C2 1.66 2 2.32 2 3 C1.401875 3.53625 0.80375 4.0725 0.1875 4.625 C-3.72130096 8.86884104 -5.00262712 12.72228802 -4.99609375 18.38671875 C-4.60094896 24.28880202 -3.97258844 30.16446938 -3 36 C-3.33 35.34 -3.66 34.68 -4 34 C-8.77365952 36.72780544 -11.54829609 39.70052937 -14.703125 44.1953125 C-16 46 -16 46 -18 48 C-18.69921875 46.28515625 -18.69921875 46.28515625 -19 44 C-17.70703125 41.74609375 -17.70703125 41.74609375 -15.8125 39.4375 C-15.20019531 38.67308594 -14.58789062 37.90867188 -13.95703125 37.12109375 C-12 35 -12 35 -9.89111328 33.65307617 C-7.80186131 32.17553024 -7.80186131 32.17553024 -7.62524414 29.87451172 C-7.67801514 29.06771973 -7.73078613 28.26092773 -7.78515625 27.4296875 C-7.82060547 26.5325 -7.85605469 25.6353125 -7.89257812 24.7109375 C-8.00447451 22.84342545 -8.12153042 20.97621426 -8.24414062 19.109375 C-8.50207873 12.27644865 -7.24748386 7.46607956 -3 2 C-2.01 1.34 -1.02 0.68 0 0 Z " fill="#0D2A66" transform="translate(30,38)"/>
<path d="M0 0 C0.33 0 0.66 0 1 0 C1.78776497 8.67791891 1.70842357 14.86072493 -3.77734375 21.8671875 C-6.16892694 24.16209861 -8.5344091 25.48500252 -11.4375 27.0625 C-14.12952978 28.55670598 -14.12952978 28.55670598 -16 31 C-16.94424535 35.38664281 -16.51622208 39.79835042 -16.15625 44.234375 C-16 48 -16 48 -18 51 C-17.67 48.36 -17.34 45.72 -17 43 C-17.66 43 -18.32 43 -19 43 C-19.66 36.73 -20.32 30.46 -21 24 C-20.01 25.32 -19.02 26.64 -18 28 C-10.88260868 23.82446376 -4.52795031 19.23868679 -2.125 11 C-2.08375 10.34 -2.0425 9.68 -2 9 C-1.67 9 -1.34 9 -1 9 C-1.020625 7.700625 -1.04125 6.40125 -1.0625 5.0625 C-1.08399454 3.70834367 -1.07148199 2.35243917 -1 1 C-0.67 0.67 -0.34 0.34 0 0 Z " fill="#081B4C" transform="translate(151,84)"/>
<path d="M0 0 C0.99 0.495 0.99 0.495 2 1 C1.30132812 1.55429688 0.60265625 2.10859375 -0.1171875 2.6796875 C-1.02726562 3.40414062 -1.93734375 4.12859375 -2.875 4.875 C-3.77992187 5.59429687 -4.68484375 6.31359375 -5.6171875 7.0546875 C-8.00265176 8.93560474 -8.00265176 8.93560474 -10 11 C-9.01 11.99 -8.02 12.98 -7 14 C-7.83273438 13.60296875 -8.66546875 13.2059375 -9.5234375 12.796875 C-14.06929515 11.75490313 -16.68246786 13.16878284 -20.625 15.25 C-21.27984375 15.57613281 -21.9346875 15.90226563 -22.609375 16.23828125 C-24.415191 17.14118925 -26.20814586 18.06969198 -28 19 C-29.18722656 19.54914063 -29.18722656 19.54914063 -30.3984375 20.109375 C-32.18911449 20.90794388 -32.18911449 20.90794388 -33 23 C-35.89608593 23.05413245 -38.79115195 23.09373641 -41.6875 23.125 C-42.50412109 23.14175781 -43.32074219 23.15851563 -44.16210938 23.17578125 C-50.67153322 23.22848914 -54.8648157 22.33761721 -59.8125 17.875 C-60.41707031 17.33617187 -61.02164063 16.79734375 -61.64453125 16.2421875 C-62.31548828 15.62730469 -62.31548828 15.62730469 -63 15 C-62.67 14.34 -62.34 13.68 -62 13 C-61.13375 13.78375 -60.2675 14.5675 -59.375 15.375 C-54.60773034 19.29771839 -49.932047 20.49774022 -43.72265625 20.30078125 C-27.57408037 18.51679224 -12.09386995 10.71565115 0 0 Z " fill="#153790" transform="translate(87,121)"/>
<path d="M0 0 C3.36041075 1.39597363 4.83359754 2.85246887 6.8125 5.875 C10.57880032 11.0760814 14.54843881 13.76652713 21 14.875 C26.04042212 15.24333854 30.08664593 14.51256041 34.14453125 11.3046875 C35.55409354 10.05005008 36.94129888 8.76967299 38.30078125 7.4609375 C40 6 40 6 42 6 C40.84463265 10.91031124 37.9629596 13.00685953 34.01171875 15.7734375 C28.66476011 19.0335249 21.97022311 18.61879648 16 17.375 C8.67936879 14.01971069 3.44425331 9.35215611 0 2 C0 1.34 0 0.68 0 0 Z " fill="#011457" transform="translate(53,143)"/>
<path d="M0 0 C2.78114856 2.78114856 3.04345835 5.72686045 3.92578125 9.4921875 C5.38424321 12.89703323 6.8475261 14.0390123 10 16 C13.0534158 17.13590628 16.15477959 17.95745455 19.3125 18.75 C20.14845703 18.97042969 20.98441406 19.19085938 21.84570312 19.41796875 C23.89424225 19.95644189 25.94675489 20.47975929 28 21 C28 21.66 28 22.32 28 23 C26.75863281 23.31453125 25.51726562 23.6290625 24.23828125 23.953125 C22.59618207 24.3847625 20.95426434 24.81709067 19.3125 25.25 C18.49587891 25.45496094 17.67925781 25.65992187 16.83789062 25.87109375 C12.10056636 27.13693748 8.4342265 28.30560482 5 32 C3.56061978 34.99828732 3.56061978 34.99828732 2.6875 38.25 C2.36136719 39.32765625 2.03523438 40.4053125 1.69921875 41.515625 C1.46847656 42.33546875 1.23773438 43.1553125 1 44 C0.67 44 0.34 44 0 44 C0.27013073 37.92205857 0.97300594 33.83239287 5 29 C8.27724954 26.08108298 11.5636575 25.02653932 15.75 23.8125 C16.92046875 23.46832031 18.0909375 23.12414062 19.296875 22.76953125 C20.18890625 22.51558594 21.0809375 22.26164062 22 22 C20.97519531 21.70867187 19.95039062 21.41734375 18.89453125 21.1171875 C17.53352937 20.70419383 16.17286979 20.29007097 14.8125 19.875 C14.13896484 19.68679687 13.46542969 19.49859375 12.77148438 19.3046875 C7.49716209 17.65806981 5.13450123 15.56140105 2 11 C0.5659987 7.03942499 0 4.22068341 0 0 Z " fill="#244EAE" transform="translate(82,68)"/>
<path d="M0 0 C-1.41396902 0.50757862 -2.83131729 1.00574925 -4.25 1.5 C-5.43335938 1.91765625 -5.43335938 1.91765625 -6.640625 2.34375 C-9 3 -9 3 -13 3 C-13 3.66 -13 4.32 -13 5 C-11.865625 5.0825 -10.73125 5.165 -9.5625 5.25 C-3.51904263 6.02287554 1.86502405 8.03357478 6.375 12.1875 C9.35354179 17.34266848 11.58487505 22.95629116 11 29 C11.66 29 12.32 29 13 29 C13.33 28.01 13.66 27.02 14 26 C13.67 28.31 13.34 30.62 13 33 C12.34 33 11.68 33 11 33 C10.84442627 32.44538086 10.68885254 31.89076172 10.52856445 31.31933594 C9.80807781 28.7906261 9.06064871 26.2706575 8.3125 23.75 C8.06822266 22.87730469 7.82394531 22.00460938 7.57226562 21.10546875 C6.02975345 15.98979546 4.91370408 12.67049135 0 10 C-3.06093191 8.88432988 -6.15427783 8.04267139 -9.3125 7.25 C-10.14845703 7.02957031 -10.98441406 6.80914062 -11.84570312 6.58203125 C-13.89424225 6.04355811 -15.94675489 5.52024071 -18 5 C-18 4.34 -18 3.68 -18 3 C-15.75376301 2.30030318 -13.50283586 1.61564957 -11.25 0.9375 C-9.99703125 0.55464844 -8.7440625 0.17179687 -7.453125 -0.22265625 C-4.3261992 -0.92656828 -2.90533954 -1.16653785 0 0 Z " fill="#244EAE" transform="translate(68,86)"/>
<path d="M0 0 C8.2061054 3.5811054 8.2061054 3.5811054 10.75 6.125 C6.68723248 5.46922862 3.23344138 4.12815855 -0.5625 2.5625 C-10.24293862 -0.96693284 -20.46691878 -1.63423954 -30.25 2.125 C-29.31886493 -0.20283768 -28.68812571 -1.59298805 -26.55078125 -2.96875 C-17.42975366 -6.56141282 -8.51104918 -3.65669449 0 0 Z " fill="#1E459B" transform="translate(61.25,37.875)"/>
<path d="M0 0 C6.4753546 -0.5332645 9.41139789 1.87014951 14.36328125 5.734375 C22.64725834 12.85245902 22.64725834 12.85245902 23.35546875 19.171875 C23.37290141 22.14239996 23.26617404 25.04251072 23 28 C22.67 28 22.34 28 22 28 C21.92523438 27.3709375 21.85046875 26.741875 21.7734375 26.09375 C20.55117382 18.13705311 17.89567193 13.06000729 11.5234375 8.0546875 C9.04963834 6.3106226 6.53534893 4.65257892 4 3 C2.65852607 2.01094719 1.32228487 1.0145642 0 0 Z " fill="#092156" transform="translate(128,66)"/>
<path d="M0 0 C4.01864152 1.29000771 7.87904886 2.75834417 11.75 4.4375 C17.07727494 6.68827366 22.42295488 8.48235277 28 10 C28 10.66 28 11.32 28 12 C26.98679687 11.96519531 26.98679687 11.96519531 25.953125 11.9296875 C25.06109375 11.91164062 24.1690625 11.89359375 23.25 11.875 C21.92742187 11.84019531 21.92742187 11.84019531 20.578125 11.8046875 C17.8864142 12.00860498 16.30095026 12.63448279 14 14 C14.66 12.02 15.32 10.04 16 8 C15.43152344 7.82984375 14.86304687 7.6596875 14.27734375 7.484375 C9.0677886 5.84932263 4.64636859 3.86690828 0 1 C0 0.67 0 0.34 0 0 Z " fill="#0F3289" transform="translate(80,135)"/>
<path d="M0 0 C0.66 0.33 1.32 0.66 2 1 C0.4840625 2.2375 0.4840625 2.2375 -1.0625 3.5 C-4.46541766 6.40993965 -7.33858342 9.57817387 -10.2421875 12.9765625 C-14.34491076 17.69925283 -18.37735236 22.10348455 -24 25 C-22.52936795 21.59802716 -20.62728693 19.38183128 -18.0078125 16.77734375 C-17.22019531 15.99166016 -16.43257812 15.20597656 -15.62109375 14.39648438 C-14.79738281 13.58501953 -13.97367188 12.77355469 -13.125 11.9375 C-12.30902344 11.12216797 -11.49304687 10.30683594 -10.65234375 9.46679688 C-7.23255205 6.07210968 -3.92216221 2.81487761 0 0 Z " fill="#1B3B82" transform="translate(65,50)"/>
<path d="M0 0 C0.99 0.33 1.98 0.66 3 1 C3.03738281 2.00160156 3.07476563 3.00320312 3.11328125 4.03515625 C3.56963941 15.96360492 3.56963941 15.96360492 9.6875 25.9375 C10.450625 26.618125 11.21375 27.29875 12 28 C7.53853997 26.59782685 4.96855728 24.6104075 2 21 C-0.9654357 14.36307247 -0.17824822 7.13983147 0 0 Z " fill="#092053" transform="translate(19,114)"/>
<path d="M0 0 C5.11263852 0.02942526 8.78984214 1.18437428 13.4375 3.25 C13.4375 4.24 13.4375 5.23 13.4375 6.25 C12.45652344 5.93289062 11.47554687 5.61578125 10.46484375 5.2890625 C6.31823218 4.10431634 2.29210863 3.8134915 -2 3.625 C-3.09731445 3.56699219 -3.09731445 3.56699219 -4.21679688 3.5078125 C-5.99833532 3.41466016 -7.78038122 3.33129714 -9.5625 3.25 C-8.923125 2.940625 -8.28375 2.63125 -7.625 2.3125 C-3.25167031 0.05957259 -3.25167031 0.05957259 0 0 Z " fill="#193A84" transform="translate(109.5625,30.75)"/>
<path d="M0 0 C0.66 0.33 1.32 0.66 2 1 C1.43410156 1.77085938 0.86820313 2.54171875 0.28515625 3.3359375 C-0.44832031 4.33882812 -1.18179688 5.34171875 -1.9375 6.375 C-3.03384766 7.87160156 -3.03384766 7.87160156 -4.15234375 9.3984375 C-5.9779569 11.82817109 -5.9779569 11.82817109 -7 14 C-8.65 13.67 -10.3 13.34 -12 13 C-10.68 12.67 -9.36 12.34 -8 12 C-7.938125 11.278125 -7.87625 10.55625 -7.8125 9.8125 C-6.74812129 6.12811217 -4.8134208 4.53894072 -2 2 C-1.34 1.34 -0.68 0.68 0 0 Z " fill="#091F5B" transform="translate(63,22)"/>
<path d="M0 0 C0.99386719 0.10183594 1.98773438 0.20367188 3.01171875 0.30859375 C3.77097656 0.39238281 4.53023437 0.47617187 5.3125 0.5625 C5.3125 0.8925 5.3125 1.2225 5.3125 1.5625 C4.52746094 1.66046875 3.74242188 1.7584375 2.93359375 1.859375 C-3.51848609 2.77770784 -8.28747334 3.88066364 -13.6875 7.5625 C-12.39739008 4.68456249 -11.11388194 2.60066083 -8.6875 0.5625 C-5.3763987 -0.54120043 -3.44001051 -0.36423641 0 0 Z " fill="#163E99" transform="translate(75.6875,19.4375)"/>
<path d="M0 0 C4.21073233 1.50383297 5.83237117 4.20664956 8 8 C8 8.99 8 9.98 8 11 C4.50892621 9.83630874 4.14777237 9.11026462 2.3125 6.0625 C1.87550781 5.35222656 1.43851563 4.64195312 0.98828125 3.91015625 C0 2 0 2 0 0 Z " fill="#021347" transform="translate(53,143)"/>
<path d="M0 0 C0.66 0 1.32 0 2 0 C2.33 2.64 2.66 5.28 3 8 C2.67 7.01 2.34 6.02 2 5 C1.34 5 0.68 5 0 5 C-0.66 8.3 -1.32 11.6 -2 15 C-2.33 15 -2.66 15 -3 15 C-2.44854729 9.76119922 -1.57077907 5.02649303 0 0 Z " fill="#234DAD" transform="translate(79,60)"/>
<path d="M0 0 C3.38388291 1.45023553 5.72572644 3.08168437 8 6 C8.390625 9.015625 8.390625 9.015625 8.25 12.25 C8.21390625 13.32765625 8.1778125 14.4053125 8.140625 15.515625 C8.07101563 16.74539062 8.07101563 16.74539062 8 18 C7.67 18 7.34 18 7 18 C6.91363281 17.3709375 6.82726562 16.741875 6.73828125 16.09375 C5.69437014 9.73451171 3.80155764 5.19449479 0 0 Z " fill="#10378E" transform="translate(143,76)"/>
<path d="M0 0 C4.22797927 2.90673575 4.22797927 2.90673575 6 5 C6.375 8.8125 6.375 8.8125 6 12 C3.51137122 8.76478258 1.24578442 5.40739705 -1 2 C-0.67 1.34 -0.34 0.68 0 0 Z " fill="#092667" transform="translate(123,35)"/>
<path d="M0 0 C-2 2 -2 2 -5.0390625 2.1953125 C-6.22242187 2.17210937 -7.40578125 2.14890625 -8.625 2.125 C-9.81351562 2.10695312 -11.00203125 2.08890625 -12.2265625 2.0703125 C-13.14179687 2.04710937 -14.05703125 2.02390625 -15 2 C-15 1.34 -15 0.68 -15 0 C-9.76528314 -0.75612577 -5.22745859 -1.2063366 0 0 Z " fill="#000D58" transform="translate(123,145)"/>
<path d="M0 0 C0.99 0 1.98 0 3 0 C3.391875 1.051875 3.78375 2.10375 4.1875 3.1875 C5.76402557 6.91658932 7.96895425 9.29663487 11 12 C6.558275 10.60402929 3.98459152 8.56492876 1 5 C0.1875 2.1875 0.1875 2.1875 0 0 Z " fill="#021441" transform="translate(20,130)"/>
<path d="M0 0 C2.6875 -0.3125 2.6875 -0.3125 6 0 C8.57285724 2.172635 10.48996919 3.97993838 12 7 C7.69235185 5.43358249 3.93828536 3.31663844 0 1 C0 0.67 0 0.34 0 0 Z " fill="#103388" transform="translate(128,66)"/>
<path d="M0 0 C0.66 0.66 1.32 1.32 2 2 C1.625 4.125 1.625 4.125 1 6 C1 5.34 1 4.68 1 4 C-2.40739705 6.24578442 -5.76478258 8.51137122 -9 11 C-7.8829081 7.98385187 -6.3874224 6.35491331 -3.9375 4.375 C-0.99175287 2.32880603 -0.99175287 2.32880603 0 0 Z " fill="#113B99" transform="translate(25,68)"/>
<path d="M0 0 C0.66 0 1.32 0 2 0 C1.67 3.3 1.34 6.6 1 10 C-0.32 10.33 -1.64 10.66 -3 11 C-2.01 7.37 -1.02 3.74 0 0 Z " fill="#0B296F" transform="translate(132,127)"/>
<path d="M0 0 C1.32 0.33 2.64 0.66 4 1 C0.67692308 5.8 0.67692308 5.8 -2.75 6.8125 C-3.4925 6.874375 -4.235 6.93625 -5 7 C-3.35 4.69 -1.7 2.38 0 0 Z " fill="#011A5B" transform="translate(145,102)"/>
<path d="M0 0 C0.33 0 0.66 0 1 0 C1.33 2.97 1.66 5.94 2 9 C0.68 9 -0.64 9 -2 9 C-1.125 1.125 -1.125 1.125 0 0 Z " fill="#071842" transform="translate(130,57)"/>
<path d="M0 0 C1.051875 0.78375 2.10375 1.5675 3.1875 2.375 C6.01696802 4.40508579 8.67338936 5.89112979 12 7 C10.02 7.99 10.02 7.99 8 9 C6.66079162 7.88200014 5.32877444 6.75538103 4 5.625 C2.88625 4.68527344 2.88625 4.68527344 1.75 3.7265625 C1.1725 3.15679687 0.595 2.58703125 0 2 C0 1.34 0 0.68 0 0 Z " fill="#032077" transform="translate(24,134)"/>
<path d="M0 0 C1.33597652 0.80814651 2.668725 1.62163181 4 2.4375 C5.11375 3.11619141 5.11375 3.11619141 6.25 3.80859375 C6.8275 4.20175781 7.405 4.59492188 8 5 C8 5.33 8 5.66 8 6 C3.50347222 6.36458333 3.50347222 6.36458333 1.1875 4.6875 C0 3 0 3 0 0 Z " fill="#03216B" transform="translate(61,152)"/>
<path d="M0 0 C7.75 -0.125 7.75 -0.125 10 1 C10 1.99 10 2.98 10 4 C6.7 3.01 3.4 2.02 0 1 C0 0.67 0 0.34 0 0 Z " fill="#13368B" transform="translate(113,33)"/>
<path d="M0 0 C0.66 0.33 1.32 0.66 2 1 C2 3 2 3 0.1875 4.9375 C-0.534375 5.618125 -1.25625 6.29875 -2 7 C-2.5775 7.5775 -3.155 8.155 -3.75 8.75 C-4.36875 9.36875 -4.36875 9.36875 -5 10 C-3.66511872 6.40608886 -2.03977277 3.24509304 0 0 Z " fill="#14388A" transform="translate(30,38)"/>
</svg>
