<?xml version="1.0" encoding="UTF-8"?>
<svg version="1.1" xmlns="http://www.w3.org/2000/svg" width="1280" height="960">
<path d="M0 0 C4.08690956 2.99077574 7.14326076 6.39200098 10.25 10.375 C10.95640625 10.21644531 11.6628125 10.05789063 12.390625 9.89453125 C20.97928405 8.33402353 28.74413889 8.70502892 36.25 13.375 C40.72387118 16.68177435 42.32447894 20.15527333 43.8046875 25.359375 C44.34425217 29.01326907 43.98782869 32.32280476 43.6875 36 C43.44431913 39.83932978 43.44431913 39.83932978 44.25 43.375 C47.00489267 46.17822412 49.74052704 47.80205476 53.1875 49.671875 C58.33548008 52.53478229 62.05351059 56.89829073 64.25 62.375 C65.24783508 69.38633679 65.33348201 75.74903697 61.375 81.8125 C58.55357971 85.41603885 55.80250128 87.2693912 51.8125 89.4375 C49.11925561 90.94978907 49.11925561 90.94978907 47.25 93.375 C46.69206709 97.79453158 46.87717498 101.89933838 47.1328125 106.328125 C47.38370869 111.19062642 46.5510476 114.69095792 43.25 118.375 C38.42134184 122.68834682 34.76468516 125.58139051 28.19921875 125.2265625 C27.19052734 125.19175781 26.18183594 125.15695312 25.14257812 125.12109375 C23.01654343 125.04076825 20.89126176 124.93682603 18.76757812 124.80859375 C13.25283392 124.47064048 13.25283392 124.47064048 8.54541016 126.84130859 C7.30729224 128.63286001 6.28573931 130.46176302 5.25 132.375 C-0.69655487 138.0287321 -5.57644666 139.68814783 -13.77734375 139.51953125 C-20.22672787 139.04700212 -25.15013989 135.70094647 -29.75 131.375 C-34.75 124.89307229 -34.75 124.89307229 -34.75 121.375 C-35.513125 121.54 -36.27625 121.705 -37.0625 121.875 C-45.88104562 123.070735 -55.00271419 123.44496635 -62.5703125 118.0859375 C-66.43037428 114.59882855 -67.64805234 111.53483074 -68.75 106.375 C-68.83208316 103.36505504 -68.65433093 100.3806889 -68.5 97.375 C-68.12521072 90.24859491 -68.12521072 90.24859491 -71.5 84.25 C-72.31597656 83.53263672 -72.31597656 83.53263672 -73.1484375 82.80078125 C-76.97850091 79.39109065 -78.95285908 74.4363003 -79.25 69.375 C-78.75534804 61.20526444 -73.35632977 54.9122863 -67.75 49.375 C-66.76 48.88 -66.76 48.88 -65.75 48.375 C-65.77618408 47.785979 -65.80236816 47.19695801 -65.8293457 46.59008789 C-65.93447971 43.87283954 -65.99868497 41.15602046 -66.0625 38.4375 C-66.10439453 37.51130859 -66.14628906 36.58511719 -66.18945312 35.63085938 C-66.33003952 27.6174347 -64.18864671 22.06349102 -58.70703125 16.18359375 C-50.55081595 10.9689643 -42.06561153 11.82702285 -32.75 12.375 C-32.63011719 11.60285156 -32.51023438 10.83070313 -32.38671875 10.03515625 C-31.25260955 5.29694542 -27.58398954 2.99605604 -23.8125 0.1875 C-15.80192347 -4.55345346 -8.02049569 -5.05845766 0 0 Z " fill="#000102" transform="translate(255.75,413.625)"/>
<path d="M0 0 C1.07507813 -0.00128906 2.15015625 -0.00257813 3.2578125 -0.00390625 C4.38960937 -0.00003906 5.52140625 0.00382812 6.6875 0.0078125 C7.81929687 0.00394531 8.95109375 0.00007813 10.1171875 -0.00390625 C11.19226563 -0.00261719 12.26734375 -0.00132812 13.375 0 C14.36886719 0.00112793 15.36273437 0.00225586 16.38671875 0.00341797 C18.6875 0.1328125 18.6875 0.1328125 19.6875 1.1328125 C19.78254251 3.65822252 19.81307158 6.15618376 19.80102539 8.68188477 C19.80117142 9.47207001 19.80131744 10.26225525 19.8014679 11.0763855 C19.80076857 13.70069072 19.79297527 16.32492586 19.78515625 18.94921875 C19.78329214 20.76382915 19.7818682 22.57844006 19.78086853 24.39305115 C19.77704279 29.1787148 19.76721204 33.9643483 19.75616455 38.75 C19.74595163 43.62955314 19.74137117 48.50911114 19.73632812 53.38867188 C19.72558981 62.97006749 19.70799257 72.55143278 19.6875 82.1328125 C11.4375 82.1328125 3.1875 82.1328125 -5.3125 82.1328125 C-5.9725 80.4828125 -6.6325 78.8328125 -7.3125 77.1328125 C-8.199375 77.7515625 -9.08625 78.3703125 -10 79.0078125 C-17.29064806 83.68483201 -23.7767794 83.89648399 -32.3125 83.1328125 C-38.5077249 81.50351713 -42.97254656 77.51824039 -46.3125 72.1328125 C-48.84908622 66.64212743 -50.3125 62.22301042 -50.3125 56.1328125 C-64.8325 56.4628125 -79.3525 56.7928125 -94.3125 57.1328125 C-92.77118886 61.12241996 -92.77118886 61.12241996 -90.1875 62.3828125 C-84.93029889 63.75425627 -80.90855485 63.78305707 -75.9375 61.7578125 C-73.27551969 60.24852508 -73.27551969 60.24852508 -71.3125 58.1328125 C-66.80989648 58.516705 -62.78073563 59.87562344 -58.5625 61.4453125 C-57.43328125 61.85394531 -56.3040625 62.26257813 -55.140625 62.68359375 C-52.14549909 64.21838893 -51.35435894 65.0005571 -50.3125 68.1328125 C-54.25688508 75.33560264 -60.38574112 79.41589089 -68.125 82.0078125 C-81.23612625 85.08735973 -97.82685907 84.96883627 -109.515625 77.77734375 C-115.55980101 73.04104617 -118.8381763 66.62729133 -120.3125 59.1328125 C-121.11777244 49.03158802 -119.90365835 40.14908616 -113.3125 32.1328125 C-104.35846877 23.6566066 -94.651495 22.64859269 -82.78930664 22.70874023 C-72.70326798 22.98940673 -63.99736618 25.40855459 -56.3125 32.1328125 C-53.2888047 35.97372275 -51.78396403 39.51280097 -50.3125 44.1328125 C-49.94898438 43.33617187 -49.58546875 42.53953125 -49.2109375 41.71875 C-45.52498242 33.94989084 -42.08867164 26.79009224 -33.48828125 23.60546875 C-25.69312924 21.91208743 -18.26533697 22.44471731 -11.1171875 25.96484375 C-9.24562165 27.17609524 -7.86142194 28.53945651 -6.3125 30.1328125 C-6.31773682 29.25955322 -6.32297363 28.38629395 -6.32836914 27.48657227 C-6.34537751 24.25691977 -6.35793369 21.02729005 -6.36743164 17.79760742 C-6.3724708 16.39786022 -6.37930216 14.9981183 -6.38793945 13.59838867 C-6.4000232 11.59035473 -6.40519807 9.58228293 -6.41015625 7.57421875 C-6.41539307 6.36451416 -6.42062988 5.15480957 -6.42602539 3.90844727 C-6.23039361 -0.87464453 -4.28106625 0.00485854 0 0 Z M-93.3125 44.1328125 C-89.90145449 46.20409797 -87.20714724 46.40242661 -83.25 46.3828125 C-82.20714844 46.38796875 -81.16429687 46.393125 -80.08984375 46.3984375 C-77.10121015 46.33353827 -77.10121015 46.33353827 -74.3125 44.1328125 C-77.92321216 41.42477838 -80.78026298 40.67345716 -85.30859375 40.828125 C-88.33287936 41.2879579 -90.71406885 42.57375381 -93.3125 44.1328125 Z M-23.3125 47.1328125 C-24.85034153 51.7463371 -25.05991859 55.57002819 -22.9375 60.0078125 C-21.48489958 62.22946075 -21.48489958 62.22946075 -19.3125 63.1328125 C-14.01870587 63.47994654 -10.59410465 63.63594358 -6.3125 60.1328125 C-4.77465847 55.5192879 -4.56508141 51.69559681 -6.6875 47.2578125 C-8.14010042 45.03616425 -8.14010042 45.03616425 -10.3125 44.1328125 C-17.51239043 43.40149428 -17.51239043 43.40149428 -23.3125 47.1328125 Z " fill="#3570F7" transform="translate(583.3125,429.8671875)"/>
<path d="M0 0 C1.15605492 -0.0049926 1.15605492 -0.0049926 2.33546448 -0.01008606 C3.96883546 -0.01515835 5.60221685 -0.01749429 7.2355957 -0.01733398 C9.73991924 -0.01951905 12.24380146 -0.0376672 14.74804688 -0.05664062 C16.33202974 -0.05957472 17.9160147 -0.06155941 19.5 -0.0625 C20.25212265 -0.06968552 21.0042453 -0.07687103 21.77915955 -0.08427429 C27.08758346 -0.06085404 27.08758346 -0.06085404 29.31640625 2.16796875 C29.8809007 4.29295049 30.34239944 6.44563923 30.75390625 8.60546875 C30.9401355 9.5807251 30.9401355 9.5807251 31.13012695 10.57568359 C32.17039951 16.1338044 33.1013966 21.71101946 34.00390625 27.29296875 C34.13531006 28.09790771 34.26671387 28.90284668 34.40209961 29.73217773 C35.00581278 33.58272439 35.48138099 37.25571058 35.31640625 41.16796875 C35.97640625 41.16796875 36.63640625 41.16796875 37.31640625 41.16796875 C37.35507812 39.81832031 37.35507812 39.81832031 37.39453125 38.44140625 C37.76896579 29.94855015 38.74614322 21.72534525 40.25390625 13.35546875 C40.42374023 12.39495605 40.59357422 11.43444336 40.76855469 10.44482422 C41.02233887 9.09155029 41.02233887 9.09155029 41.28125 7.7109375 C41.43198975 6.9068042 41.58272949 6.1026709 41.73803711 5.27416992 C42.31640625 3.16796875 42.31640625 3.16796875 44.31640625 0.16796875 C47.1536795 -0.09870664 49.7702367 -0.17994359 52.60546875 -0.125 C53.42389252 -0.12075516 54.24231628 -0.11651031 55.08554077 -0.11213684 C57.70449461 -0.09531804 60.32268427 -0.05766099 62.94140625 -0.01953125 C64.71483265 -0.00448851 66.48827109 0.00920061 68.26171875 0.02148438 C72.61357655 0.05459583 76.96486176 0.10639923 81.31640625 0.16796875 C82.4588223 2.45280084 82.52619308 3.95103152 82.67578125 6.49609375 C82.73717285 7.42268799 82.79856445 8.34928223 82.86181641 9.30395508 C82.92933105 10.33157959 82.9968457 11.3592041 83.06640625 12.41796875 C84.00772123 25.65087559 85.76145164 38.73869441 87.63964844 51.86621094 C87.74955109 52.65624008 87.85945374 53.44626923 87.97268677 54.26023865 C88.17654685 55.72563235 88.38669428 57.19017522 88.60519409 58.65345764 C89.47647133 64.97604641 89.31640625 70.58956028 89.31640625 77.16796875 C79.74640625 77.16796875 70.17640625 77.16796875 60.31640625 77.16796875 C59.98640625 63.96796875 59.65640625 50.76796875 59.31640625 37.16796875 C58.55328125 40.98359375 57.79015625 44.79921875 57.00390625 48.73046875 C55.10807292 58.20963542 53.21223958 67.68880208 51.31640625 77.16796875 C41.74640625 77.16796875 32.17640625 77.16796875 22.31640625 77.16796875 C20.46533469 73.46582563 19.90298408 71.29592511 19.37890625 67.29296875 C18.52997415 61.30328114 17.34670165 55.45086831 16 49.5546875 C15.24086183 45.79370012 14.79230729 41.97517705 14.31640625 38.16796875 C13.65640625 51.03796875 12.99640625 63.90796875 12.31640625 77.16796875 C2.74640625 77.16796875 -6.82359375 77.16796875 -16.68359375 77.16796875 C-14.97537139 56.6693004 -13.00282041 36.21653267 -10.55859375 15.79296875 C-10.47241791 15.0617984 -10.38624207 14.33062805 -10.29745483 13.57730103 C-10.05341077 11.51575637 -9.80324366 9.45505986 -9.55078125 7.39453125 C-9.40753418 6.21455566 -9.26428711 5.03458008 -9.11669922 3.81884766 C-8.25951381 -1.42766824 -4.4658842 0.00658988 0 0 Z " fill="#3470F6" transform="translate(373.68359375,434.83203125)"/>
<path d="M0 0 C1.07507813 -0.00128906 2.15015625 -0.00257813 3.2578125 -0.00390625 C4.38960937 -0.00003906 5.52140625 0.00382812 6.6875 0.0078125 C7.81929687 0.00394531 8.95109375 0.00007813 10.1171875 -0.00390625 C11.19226563 -0.00261719 12.26734375 -0.00132812 13.375 0 C14.86580078 0.00169189 14.86580078 0.00169189 16.38671875 0.00341797 C18.6875 0.1328125 18.6875 0.1328125 19.6875 1.1328125 C19.77508003 3.13246232 19.79446576 5.1351736 19.78515625 7.13671875 C19.78265869 8.23056885 19.78016113 9.32441895 19.77758789 10.45141602 C19.76848389 11.85190186 19.75937988 13.2523877 19.75 14.6953125 C19.729375 19.1296875 19.70875 23.5640625 19.6875 28.1328125 C31.2375 28.1328125 42.7875 28.1328125 54.6875 28.1328125 C54.64790599 19.29208387 54.64790599 19.29208387 54.59741211 10.45141602 C54.59491455 9.35756592 54.59241699 8.26371582 54.58984375 7.13671875 C54.58460693 6.01080322 54.57937012 4.8848877 54.57397461 3.72485352 C54.6875 1.1328125 54.6875 1.1328125 55.6875 0.1328125 C57.54119611 0.04543605 59.39817541 0.02583097 61.25390625 0.03515625 C62.37861328 0.03837891 63.50332031 0.04160156 64.66210938 0.04492188 C65.84611328 0.05330078 67.03011719 0.06167969 68.25 0.0703125 C69.43787109 0.07482422 70.62574219 0.07933594 71.84960938 0.08398438 C74.79562226 0.09581575 77.74153681 0.11229963 80.6875 0.1328125 C81.66160795 4.20848643 81.81422485 8.01709925 81.81689453 12.20214844 C81.81952301 13.23958946 81.81952301 13.23958946 81.82220459 14.29798889 C81.82658601 16.57108103 81.82369953 18.84409465 81.8203125 21.1171875 C81.8209863 22.69948339 81.82195696 24.28177917 81.82321167 25.86407471 C81.82468335 29.1725768 81.82254996 32.48105184 81.81787109 35.78955078 C81.81215542 40.03905244 81.81546773 44.28849119 81.82144356 48.53799057 C81.82504757 51.80123371 81.82391165 55.0644618 81.82131577 58.32770538 C81.82064702 59.89546974 81.82147311 61.46323545 81.82379532 63.03099823 C81.82632124 65.21438761 81.82248302 67.3976731 81.81689453 69.58105469 C81.81609894 70.82506042 81.81530334 72.06906616 81.81448364 73.35076904 C81.6875 76.1328125 81.6875 76.1328125 80.6875 77.1328125 C78.76082493 77.22029457 76.83098139 77.23978584 74.90234375 77.23046875 C73.84909912 77.22797119 72.79585449 77.22547363 71.71069336 77.22290039 C70.36241455 77.21379639 69.01413574 77.20469238 67.625 77.1953125 C63.355625 77.1746875 59.08625 77.1540625 54.6875 77.1328125 C54.6875 67.8928125 54.6875 58.6528125 54.6875 49.1328125 C43.1375 49.1328125 31.5875 49.1328125 19.6875 49.1328125 C19.6875 58.3728125 19.6875 67.6128125 19.6875 77.1328125 C11.1075 77.1328125 2.5275 77.1328125 -6.3125 77.1328125 C-6.33505176 67.24091467 -6.35341552 57.3490338 -6.36431217 47.45711613 C-6.36954082 42.8643861 -6.37663812 38.2716745 -6.38793945 33.67895508 C-6.398769 29.25047562 -6.40477698 24.82201394 -6.40737724 20.39352226 C-6.40923137 18.70015622 -6.41285175 17.00679121 -6.41823006 15.31343269 C-6.4254414 12.94990018 -6.4264909 10.58644205 -6.42602539 8.22290039 C-6.42962067 7.51583954 -6.43321594 6.80877869 -6.43692017 6.08029175 C-6.42404644 0.07872961 -5.87211516 0.0066642 0 0 Z " fill="#3571F7" transform="translate(890.3125,434.8671875)"/>
<path d="M0 0 C4.08690956 2.99077574 7.14326076 6.39200098 10.25 10.375 C10.95640625 10.21644531 11.6628125 10.05789063 12.390625 9.89453125 C20.97928405 8.33402353 28.74413889 8.70502892 36.25 13.375 C40.72387118 16.68177435 42.32447894 20.15527333 43.8046875 25.359375 C44.34425217 29.01326907 43.98782869 32.32280476 43.6875 36 C43.44431913 39.83932978 43.44431913 39.83932978 44.25 43.375 C47.00489267 46.17822412 49.74052704 47.80205476 53.1875 49.671875 C58.33548008 52.53478229 62.05351059 56.89829073 64.25 62.375 C65.24783508 69.38633679 65.33348201 75.74903697 61.375 81.8125 C58.55357971 85.41603885 55.80250128 87.2693912 51.8125 89.4375 C49.11925561 90.94978907 49.11925561 90.94978907 47.25 93.375 C46.69206709 97.79453158 46.87717498 101.89933838 47.1328125 106.328125 C47.38370869 111.19062642 46.5510476 114.69095792 43.25 118.375 C38.42134184 122.68834682 34.76468516 125.58139051 28.19921875 125.2265625 C27.19052734 125.19175781 26.18183594 125.15695312 25.14257812 125.12109375 C23.01654343 125.04076825 20.89126176 124.93682603 18.76757812 124.80859375 C13.25283392 124.47064048 13.25283392 124.47064048 8.54541016 126.84130859 C7.30729224 128.63286001 6.28573931 130.46176302 5.25 132.375 C-0.69655487 138.0287321 -5.57644666 139.68814783 -13.77734375 139.51953125 C-20.22672787 139.04700212 -25.15013989 135.70094647 -29.75 131.375 C-34.75 124.89307229 -34.75 124.89307229 -34.75 121.375 C-35.513125 121.54 -36.27625 121.705 -37.0625 121.875 C-45.88104562 123.070735 -55.00271419 123.44496635 -62.5703125 118.0859375 C-66.43037428 114.59882855 -67.64805234 111.53483074 -68.75 106.375 C-68.83208316 103.36505504 -68.65433093 100.3806889 -68.5 97.375 C-68.12521072 90.24859491 -68.12521072 90.24859491 -71.5 84.25 C-72.31597656 83.53263672 -72.31597656 83.53263672 -73.1484375 82.80078125 C-76.97850091 79.39109065 -78.95285908 74.4363003 -79.25 69.375 C-78.75534804 61.20526444 -73.35632977 54.9122863 -67.75 49.375 C-66.76 48.88 -66.76 48.88 -65.75 48.375 C-65.77618408 47.785979 -65.80236816 47.19695801 -65.8293457 46.59008789 C-65.93447971 43.87283954 -65.99868497 41.15602046 -66.0625 38.4375 C-66.10439453 37.51130859 -66.14628906 36.58511719 -66.18945312 35.63085938 C-66.33003952 27.6174347 -64.18864671 22.06349102 -58.70703125 16.18359375 C-50.55081595 10.9689643 -42.06561153 11.82702285 -32.75 12.375 C-32.63011719 11.60285156 -32.51023438 10.83070313 -32.38671875 10.03515625 C-31.25260955 5.29694542 -27.58398954 2.99605604 -23.8125 0.1875 C-15.80192347 -4.55345346 -8.02049569 -5.05845766 0 0 Z M-34.58203125 41.96484375 C-36.77836499 44.40653369 -39.09698023 46.40852996 -41.625 48.5 C-52.8699189 58.45079137 -64.63411319 76.11672558 -65.92700195 91.47802734 C-65.99352832 93.90213159 -66.03477672 96.32513678 -66.0625 98.75 C-66.09150391 99.58789062 -66.12050781 100.42578125 -66.15039062 101.2890625 C-66.20719937 106.84757935 -65.44859854 109.96382743 -61.75 114.375 C-57.1503089 118.7326021 -53.07677136 120.15340273 -46.8125 120.75 C-30.00386305 120.21683789 -13.13158192 111.34557544 -0.75 100.375 C-4.18361902 104.01059661 -7.5473607 106.73613346 -11.75 109.375 C-8.56186399 113.01059369 -5.03195499 114.97833264 -0.6875 116.9375 C0.31168457 117.39201538 0.31168457 117.39201538 1.33105469 117.85571289 C11.58001693 122.40519817 22.42539805 125.72138482 33.5625 122.3125 C37.8529603 120.4585974 40.80293914 117.31231246 43.25 113.375 C45.94326903 105.95641466 44.70658575 96.0220752 43.25 88.375 C44.24 89.86 44.24 89.86 45.25 91.375 C52.50281457 87.18119566 59.51898881 82.21047072 62.0078125 73.8203125 C62.93800099 67.3089931 61.66662302 62.79576001 57.83984375 57.37890625 C53.53405085 51.99412033 48.44949704 48.36707901 42.25 45.375 C41.59 45.375 40.93 45.375 40.25 45.375 C40.40984375 44.51777344 40.5696875 43.66054688 40.734375 42.77734375 C41.94203821 34.80859637 42.68058265 26.37817903 38.25 19.375 C33.49932565 14.44463112 29.90878747 12.27628191 22.90795898 12.08203125 C0.49820486 11.87315553 -20.37635078 25.22335876 -34.58203125 41.96484375 Z " fill="#02050B" transform="translate(255.75,413.625)"/>
<path d="M0 0 C8.25 0 16.5 0 25 0 C25 10.23 25 20.46 25 31 C26.65 29.35 28.3 27.7 30 26 C37.22927571 22.25626794 45.44577723 21.54270393 53.3671875 23.62109375 C60.08137127 26.56018197 65.19329787 32.3624468 67.875 39.125 C71.15807329 49.49790027 70.81218469 59.79799684 67 70 C63.78469943 75.85550673 59.84832022 80.07309016 53.515625 82.41015625 C44.58384589 84.50440881 37.10830704 83.01827605 29 79 C29 78.34 29 77.68 29 77 C28.34 77 27.68 77 27 77 C25.375 75.5 25.375 75.5 24 74 C23.855625 75.134375 23.71125 76.26875 23.5625 77.4375 C23 81 23 81 22 82 C14.74 82 7.48 82 0 82 C0 54.94 0 27.88 0 0 Z M26.875 46.5 C24.44644489 51.03330287 24.1944265 52.92488695 25 58 C26.83333333 61.16666667 26.83333333 61.16666667 30 63 C33.6023033 63.67766102 36.8646155 63.35854247 40.375 62.25 C42.52682862 60.59474722 43.17465186 59.61360243 44 57 C44.42664564 52.52022073 44.49473557 50.07942306 42.625 46 C39.1637664 43.36286964 36.6991722 43.22305115 32.41796875 43.45703125 C29.8166943 44.04116235 28.70164733 44.58960952 26.875 46.5 Z " fill="#3470F7" transform="translate(1040,430)"/>
<path d="M0 0 C1.375 2.25 1.375 2.25 2 4 C1.28972656 4.69867188 0.57945312 5.39734375 -0.15234375 6.1171875 C-1.53099609 7.48230469 -1.53099609 7.48230469 -2.9375 8.875 C-3.85402344 9.77992188 -4.77054688 10.68484375 -5.71484375 11.6171875 C-8.01187627 13.77682255 -8.01187627 13.77682255 -9 16 C-8.0925 16.2475 -7.185 16.495 -6.25 16.75 C-2.21993476 18.30002509 -0.07936356 20.1441159 2.0859375 23.8671875 C3.92698776 28.16297143 3.70179354 32.76702054 2.3125 37.1875 C-0.33155239 43.00441525 -3.78983495 46.49369178 -9.5390625 49.19140625 C-24.55584323 54.75964406 -42.11501012 53.31849524 -57 48 C-60.16195515 46.53904429 -63.1171241 44.95394922 -66 43 C-65.50372318 38.20867288 -63.19771508 34.97909713 -60.4375 31.1875 C-60.01275391 30.59001953 -59.58800781 29.99253906 -59.15039062 29.37695312 C-58.10776741 27.91259467 -57.05489548 26.45554265 -56 25 C-56.77730469 24.7215625 -57.55460938 24.443125 -58.35546875 24.15625 C-62.16549217 22.49041997 -63.20035108 20.73260517 -65 17 C-65.85880083 11.12198544 -65.56927701 5.90775589 -62 1 C-47.83874353 -13.44519144 -15.31889278 -11.75028708 0 0 Z M-39 12 C-38.67 12.99 -38.34 13.98 -38 15 C-30.41 14.67 -22.82 14.34 -15 14 C-21.67204374 9.55197084 -31.98982632 7.32655088 -39 12 Z M-48 28 C-41.94180125 32.79768182 -34.51401197 32.6696778 -27 32 C-24.73285137 31.07672719 -24.73285137 31.07672719 -23 30 C-23.33 29.01 -23.66 28.02 -24 27 C-32.05358138 26.85474503 -39.97875848 27.28586721 -48 28 Z " fill="#3570F7" transform="translate(865,461)"/>
<path d="M0 0 C0.91539551 0.00684814 1.83079102 0.01369629 2.77392578 0.02075195 C13.02505092 0.26309748 21.8072807 2.59699561 29.625 9.4375 C36.50941663 18.04302078 37.71049666 26.69108302 36.625 37.4375 C35.07295625 43.73746252 32.66267486 48.23943761 27.625 52.4375 C26.75875 53.30375 25.8925 54.17 25 55.0625 C15.54870078 62.53397595 0.98901437 61.40913583 -10.375 60.4375 C-18.51296061 59.0236661 -24.39883208 56.10945699 -29.375 49.4375 C-35.52808529 40.07575061 -35.75361725 30.43457473 -34.375 19.4375 C-31.83482935 12.37477032 -27.09705738 6.80540858 -20.375 3.4375 C-13.58373751 0.83599301 -7.24122546 -0.08379496 0 0 Z M-8.375 22.4375 C-10.57249944 25.16543034 -11.31507896 26.95813166 -11.75 30.4375 C-11.31507896 33.91686834 -10.57249944 35.70956966 -8.375 38.4375 C-4.29959158 40.88274505 0.00156657 40.90545885 4.625 40.4375 C7.79982782 39.47124806 9.27964965 38.78285035 11.625 36.4375 C12.72478793 32.22853717 13.06424858 28.58442685 11.5 24.5 C8.8349729 21.56847019 6.64080228 20.62967588 2.69921875 20.25390625 C-1.37296033 20.12353517 -4.8023585 20.2939151 -8.375 22.4375 Z " fill="#3570F7" transform="translate(737.375,452.5625)"/>
<path d="M0 0 C8.58 0 17.16 0 26 0 C25.98839844 2.32417969 25.97679687 4.64835937 25.96484375 7.04296875 C25.95703648 9.30346541 25.95096922 11.56396054 25.94506836 13.82446289 C25.94005144 15.39087602 25.93323638 16.9572845 25.92456055 18.52368164 C25.91237906 20.78012239 25.90674519 23.03650102 25.90234375 25.29296875 C25.89718246 25.98899704 25.89202118 26.68502533 25.88670349 27.40214539 C25.88628454 31.06470152 26.12851905 34.43868858 27 38 C31.67885258 38.42744381 31.67885258 38.42744381 35.875 36.75 C38.42026153 32.79070428 38.18466451 28.42026572 38.31640625 23.828125 C38.33718735 23.1457074 38.35796844 22.46328979 38.37937927 21.76019287 C38.44452052 19.59022644 38.50359404 17.42014376 38.5625 15.25 C38.60571897 13.77472779 38.64933432 12.29946713 38.69335938 10.82421875 C38.80090811 7.21626301 38.90024352 3.60821322 39 0 C47.58 0 56.16 0 65 0 C65.85428202 3.4171281 66.12643377 5.84385948 66.12939453 9.3034668 C66.13254669 10.36103683 66.13569885 11.41860687 66.13894653 12.50822449 C66.13591019 14.21151665 66.13591019 14.21151665 66.1328125 15.94921875 C66.13376923 17.11757767 66.13472595 18.28593658 66.13571167 19.48970032 C66.13639183 21.95675714 66.134549 24.42381576 66.13037109 26.89086914 C66.12500616 30.6831459 66.13032907 34.47530499 66.13671875 38.26757812 C66.13605822 40.6614586 66.13477759 43.05533899 66.1328125 45.44921875 C66.13483673 46.59081955 66.13686096 47.73242035 66.13894653 48.90861511 C66.13421829 50.48078545 66.13421829 50.48078545 66.12939453 52.0847168 C66.12859894 53.01197067 66.12780334 53.93922455 66.12698364 54.89457703 C66 57 66 57 65 58 C63.36527118 58.08700342 61.72685945 58.10701063 60.08984375 58.09765625 C59.10048828 58.09443359 58.11113281 58.09121094 57.09179688 58.08789062 C56.05087891 58.07951172 55.00996094 58.07113281 53.9375 58.0625 C52.89271484 58.05798828 51.84792969 58.05347656 50.77148438 58.04882812 C48.1809334 58.03699913 45.59049441 58.02051689 43 58 C42.01 55.03 41.02 52.06 40 49 C39.154375 50.093125 38.30875 51.18625 37.4375 52.3125 C33.68531462 56.62315018 30.21438265 58.55987684 24.4609375 59.34765625 C17.34082366 59.73876109 11.69737749 58.36332212 6 54 C1.3664955 47.53994125 0.25939579 41.17421129 0.29296875 33.3984375 C0.27784744 32.435961 0.26272614 31.4734845 0.24714661 30.48184204 C0.20459477 27.44598363 0.19546313 24.41112568 0.1875 21.375 C0.16433042 19.30075525 0.13896001 17.22653385 0.11132812 15.15234375 C0.04470409 10.1010309 0.02341059 5.05243111 0 0 Z " fill="#3470F7" transform="translate(973,454)"/>
<path d="M0 0 C4.50529526 3.28450557 7.75958033 6.59588233 10.484375 11.453125 C9.97265625 13.31640625 9.97265625 13.31640625 8.484375 15.453125 C5.82367808 16.38333536 3.407269 17.06334238 0.671875 17.640625 C-0.04033203 17.80498047 -0.75253906 17.96933594 -1.48632812 18.13867188 C-2.86903988 18.45461064 -4.2541299 18.76035524 -5.64160156 19.0546875 C-7.24199152 19.39494759 -8.83489541 19.77010406 -10.42578125 20.15234375 C-11.46025391 20.30123047 -11.46025391 20.30123047 -12.515625 20.453125 C-14.140625 19.078125 -14.140625 19.078125 -15.515625 17.453125 C-19.9561517 15.97294943 -24.4316761 15.79503587 -28.890625 17.203125 C-30.98316646 18.81277228 -31.67841037 19.94148111 -32.515625 22.453125 C-33.00751166 27.07685956 -32.36708595 29.75678673 -29.515625 33.453125 C-24.14251543 35.24416152 -19.59134408 34.85741299 -14.515625 32.453125 C-13.7525 32.02 -12.989375 31.586875 -12.203125 31.140625 C-8.81347141 30.27350432 -6.91147274 31.23057903 -3.77734375 32.59765625 C-0.47672448 33.84607701 2.89667726 34.26097376 6.3828125 34.73046875 C8.484375 35.453125 8.484375 35.453125 9.7734375 37.51953125 C10.00804687 38.15761719 10.24265625 38.79570312 10.484375 39.453125 C4.73995972 47.40693077 -0.25248094 52.49757907 -9.99609375 54.91015625 C-22.90403974 56.90150419 -37.92479178 57.22592567 -48.953125 49.265625 C-56.81636064 40.63524442 -58.07809868 32.02953442 -57.85546875 20.734375 C-57.55972847 15.11899108 -55.84399438 10.97019773 -52.515625 6.453125 C-52.0309375 5.78796875 -51.54625 5.1228125 -51.046875 4.4375 C-40.21684387 -8.19753632 -13.50861707 -8.30654093 0 0 Z " fill="#3570F7" transform="translate(692.515625,457.546875)"/>
<path d="M0 0 C4.08690956 2.99077574 7.14326076 6.39200098 10.25 10.375 C10.95640625 10.21644531 11.6628125 10.05789063 12.390625 9.89453125 C20.97928405 8.33402353 28.74413889 8.70502892 36.25 13.375 C40.72387118 16.68177435 42.32447894 20.15527333 43.8046875 25.359375 C44.34425217 29.01326907 43.98782869 32.32280476 43.6875 36 C43.44431913 39.83932978 43.44431913 39.83932978 44.25 43.375 C47.00489267 46.17822412 49.74052704 47.80205476 53.1875 49.671875 C58.33548008 52.53478229 62.05351059 56.89829073 64.25 62.375 C65.24783508 69.38633679 65.33348201 75.74903697 61.375 81.8125 C58.55357971 85.41603885 55.80250128 87.2693912 51.8125 89.4375 C49.11925561 90.94978907 49.11925561 90.94978907 47.25 93.375 C46.69206709 97.79453158 46.87717498 101.89933838 47.1328125 106.328125 C47.38370869 111.19062642 46.5510476 114.69095792 43.25 118.375 C38.42134184 122.68834682 34.76468516 125.58139051 28.19921875 125.2265625 C27.19052734 125.19175781 26.18183594 125.15695312 25.14257812 125.12109375 C23.01654343 125.04076825 20.89126176 124.93682603 18.76757812 124.80859375 C13.25283392 124.47064048 13.25283392 124.47064048 8.54541016 126.84130859 C7.30729224 128.63286001 6.28573931 130.46176302 5.25 132.375 C-0.69655487 138.0287321 -5.57644666 139.68814783 -13.77734375 139.51953125 C-20.22672787 139.04700212 -25.15013989 135.70094647 -29.75 131.375 C-34.75 124.89307229 -34.75 124.89307229 -34.75 121.375 C-35.513125 121.54 -36.27625 121.705 -37.0625 121.875 C-45.88104562 123.070735 -55.00271419 123.44496635 -62.5703125 118.0859375 C-66.43037428 114.59882855 -67.64805234 111.53483074 -68.75 106.375 C-68.83208207 103.36509523 -68.65501994 100.38062947 -68.5 97.375 C-68.15577268 90.12609634 -68.15577268 90.12609634 -71.625 84 C-72.15867188 83.55914062 -72.69234375 83.11828125 -73.2421875 82.6640625 C-75.16207229 81.02271022 -75.88222736 79.75303078 -76.75 77.375 C-76.9453125 74.359375 -76.9453125 74.359375 -76.875 71.125 C-76.85695312 70.04734375 -76.83890625 68.9696875 -76.8203125 67.859375 C-76.79710937 67.03953125 -76.77390625 66.2196875 -76.75 65.375 C-76.42 65.375 -76.09 65.375 -75.75 65.375 C-75.63785156 66.426875 -75.63785156 66.426875 -75.5234375 67.5 C-74.5717441 74.36712104 -72.88262728 79.5073725 -67.75 84.375 C-67.09 84.375 -66.43 84.375 -65.75 84.375 C-65.13511719 82.87646484 -65.13511719 82.87646484 -64.5078125 81.34765625 C-63.9638927 80.04412431 -63.41960265 78.74074681 -62.875 77.4375 C-62.60558594 76.77814453 -62.33617187 76.11878906 -62.05859375 75.43945312 C-59.9765625 70.48828125 -59.9765625 70.48828125 -57.75 69.375 C-58.36917628 73.25188786 -59.55853699 76.40214562 -61.25 79.9375 C-64.35605863 86.44758218 -64.98083531 91.60706206 -65.0625 98.75 C-65.09150391 99.58789062 -65.12050781 100.42578125 -65.15039062 101.2890625 C-65.20717776 106.8454649 -64.44296802 109.95994326 -60.75 114.375 C-56.16702048 118.65244755 -50.66074522 119.87206454 -44.47265625 119.67578125 C-28.32408037 117.89179224 -12.84386995 110.09065115 -0.75 99.375 C-0.09 99.705 0.57 100.035 1.25 100.375 C0.55132812 100.92929687 -0.14734375 101.48359375 -0.8671875 102.0546875 C-2.23230469 103.14136719 -2.23230469 103.14136719 -3.625 104.25 C-4.98238281 105.32894531 -4.98238281 105.32894531 -6.3671875 106.4296875 C-8.75265176 108.31060474 -8.75265176 108.31060474 -10.75 110.375 C2.21759394 117.85770126 16.10252628 125.09904849 31.53125 121.90234375 C36.6857824 120.29636071 39.25444924 117.822939 42.25 113.375 C45.10219027 105.23101017 43.40752982 94.76709121 42.25 86.375 C43.735 88.355 43.735 88.355 45.25 90.375 C52.17387007 86.31299622 58.68975465 81.99012028 60.94140625 73.88671875 C61.869875 67.44607764 60.6739102 63.14646867 57.1328125 57.63671875 C53.89225166 53.31277515 50.82416145 51.74690197 45.875 49.625 C42.69921875 47.921875 42.69921875 47.921875 40.25 45.375 C39.10362884 40.60809165 39.68595092 35.7991275 40.12109375 30.96875 C40.50812108 25.64188668 39.30729242 21.76445943 35.75 17.6328125 C30.64079175 13.77429585 26.93166753 13.18173438 20.6875 13.1875 C19.97529297 13.18685547 19.26308594 13.18621094 18.52929688 13.18554688 C12.93091089 13.24127741 7.66882351 13.91608598 2.25 15.375 C2.91 14.715 3.57 14.055 4.25 13.375 C5.24 13.375 6.23 13.375 7.25 13.375 C3.72124003 7.53897389 -0.31837808 3.10723036 -6.75 0.375 C-12.23982687 -0.51245322 -16.97982029 0.26205419 -21.82421875 2.9609375 C-25.85661958 5.92184846 -29.50415513 9.88331025 -31.75 14.375 C-26.47 16.685 -21.19 18.995 -15.75 21.375 C-19.76984115 22.71494705 -21.37227925 21.58078256 -25.25 20 C-26.3946875 19.53851563 -27.539375 19.07703125 -28.71875 18.6015625 C-29.7190625 18.19679688 -30.719375 17.79203125 -31.75 17.375 C-38.01774683 15.28575106 -46.83284106 15.34612597 -53.21875 17.0234375 C-58.20154757 19.58039941 -60.58793529 24.04132687 -62.375 29.16796875 C-63.63027039 36.55575804 -61.97820631 45.00576216 -60.75 52.375 C-61.08 51.715 -61.41 51.055 -61.75 50.375 C-66.52365952 53.10280544 -69.29829609 56.07552937 -72.453125 60.5703125 C-73.75 62.375 -73.75 62.375 -75.75 64.375 C-76.44921875 62.66015625 -76.44921875 62.66015625 -76.75 60.375 C-75.45703125 58.12109375 -75.45703125 58.12109375 -73.5625 55.8125 C-72.95019531 55.04808594 -72.33789062 54.28367187 -71.70703125 53.49609375 C-69.75 51.375 -69.75 51.375 -67.64111328 50.02807617 C-65.55186131 48.55053024 -65.55186131 48.55053024 -65.37524414 46.24951172 C-65.42801514 45.44271973 -65.48078613 44.63592773 -65.53515625 43.8046875 C-65.57060547 42.9075 -65.60605469 42.0103125 -65.64257812 41.0859375 C-65.75447451 39.21842545 -65.87153042 37.35121426 -65.99414062 35.484375 C-66.2566924 28.52922989 -64.90509313 23.9962909 -60.75 18.375 C-56.65287607 13.98018829 -52.02190322 12.30050351 -46.09765625 12.01171875 C-41.63547418 11.94181167 -37.20408607 12.11299494 -32.75 12.375 C-32.63011719 11.60285156 -32.51023438 10.83070313 -32.38671875 10.03515625 C-31.25260955 5.29694542 -27.58398954 2.99605604 -23.8125 0.1875 C-15.80192347 -4.55345346 -8.02049569 -5.05845766 0 0 Z " fill="#011661" transform="translate(255.75,413.625)"/>
<path d="M0 0 C8.91 0 17.82 0 27 0 C28.70565618 1.70565618 28.12752055 3.90733495 28.12939453 6.23828125 C28.13254669 7.35614014 28.13569885 8.47399902 28.13894653 9.62573242 C28.1369223 10.84236572 28.13489807 12.05899902 28.1328125 13.3125 C28.13424759 15.17128784 28.13424759 15.17128784 28.13571167 17.06762695 C28.13639374 19.69388281 28.13503538 22.32004633 28.13037109 24.94628906 C28.12467381 28.31928714 28.12795302 31.69220565 28.13394356 35.06520081 C28.1384177 38.27263677 28.13528882 41.480063 28.1328125 44.6875 C28.13483673 45.9041333 28.13686096 47.1207666 28.13894653 48.37426758 C28.13579437 49.49212646 28.13264221 50.60998535 28.12939453 51.76171875 C28.12859894 52.75131592 28.12780334 53.74091309 28.12698364 54.76049805 C28 57 28 57 27 58 C18.09 58 9.18 58 0 58 C0 38.86 0 19.72 0 0 Z " fill="#3571F7" transform="translate(606,454)"/>
<path d="M0 0 C8.91 0 17.82 0 27 0 C27.02290839 5.25111196 27.04283563 10.50205178 27.05493164 15.75317383 C27.05997218 17.54094021 27.06680454 19.32870245 27.07543945 21.11645508 C27.0875173 23.68051168 27.09323094 26.24451397 27.09765625 28.80859375 C27.10281754 29.6127623 27.10797882 30.41693085 27.11329651 31.24546814 C27.11349215 33.16401715 27.06201983 35.08245368 27 37 C26 38 26 38 23.49975586 38.11352539 C22.41573486 38.10828857 21.33171387 38.10305176 20.21484375 38.09765625 C19.16159912 38.09515869 18.10835449 38.09266113 17.02319336 38.09008789 C15.67491455 38.08098389 14.32663574 38.07187988 12.9375 38.0625 C8.668125 38.041875 4.39875 38.02125 0 38 C0 25.46 0 12.92 0 0 Z " fill="#336FF7" transform="translate(773,430)"/>
<path d="M0 0 C0.66 0 1.32 0 2 0 C2.31453125 1.24136719 2.6290625 2.48273438 2.953125 3.76171875 C3.3847625 5.40381793 3.81709067 7.04573566 4.25 8.6875 C4.45496094 9.50412109 4.65992188 10.32074219 4.87109375 11.16210938 C6.13384739 15.8878692 7.18512701 19.71631186 11 23 C14.33681728 24.42746578 17.74640791 25.38262507 21.25 26.3125 C22.18585938 26.57611328 23.12171875 26.83972656 24.0859375 27.11132812 C26.38668923 27.75694723 28.69070587 28.38577866 31 29 C31 29.66 31 30.32 31 31 C29.75863281 31.31453125 28.51726562 31.6290625 27.23828125 31.953125 C25.59618207 32.3847625 23.95426434 32.81709067 22.3125 33.25 C21.49587891 33.45496094 20.67925781 33.65992188 19.83789062 33.87109375 C15.09773923 35.13769291 11.45156226 36.31877105 8 40 C6.62708252 42.75979055 6.62708252 42.75979055 5.8125 45.8125 C5.49410156 46.86566406 5.17570312 47.91882813 4.84765625 49.00390625 C4.56792969 49.99261719 4.28820312 50.98132813 4 52 C3.77183594 52.77214844 3.54367188 53.54429687 3.30859375 54.33984375 C2.8557287 55.8884522 2.42453118 57.44338568 2 59 C1.34 59 0.68 59 0 59 C-0.15557373 58.44538086 -0.31114746 57.89076172 -0.47143555 57.31933594 C-1.19192219 54.7906261 -1.93935129 52.2706575 -2.6875 49.75 C-2.93177734 48.87730469 -3.17605469 48.00460937 -3.42773438 47.10546875 C-4.97024655 41.98979546 -6.08629592 38.67049135 -11 36 C-14.06093191 34.88432988 -17.15427783 34.04267139 -20.3125 33.25 C-21.56643555 32.91935547 -21.56643555 32.91935547 -22.84570312 32.58203125 C-24.89424225 32.04355811 -26.94675489 31.52024071 -29 31 C-29 30.34 -29 29.68 -29 29 C-28.41508789 28.84442627 -27.83017578 28.68885254 -27.22753906 28.52856445 C-24.56291906 27.80850401 -21.90680171 27.06086908 -19.25 26.3125 C-17.86941406 25.94608398 -17.86941406 25.94608398 -16.4609375 25.57226562 C-12.54747893 24.452109 -9.64248914 23.55302862 -6.53125 20.875 C-4.43954166 16.94771087 -3.32955848 12.98875971 -2.25 8.6875 C-2.02957031 7.85154297 -1.80914062 7.01558594 -1.58203125 6.15429688 C-1.04355811 4.10575775 -0.52024071 2.05324511 0 0 Z " fill="#010308" transform="translate(247,452)"/>
<path d="M0 0 C7.08880362 0.9747105 13.24710178 5.71082754 17.9375 11 C21.9369723 16.81741426 23.76093614 21.42344702 22.7578125 28.4453125 C20.26898881 36.83547072 13.25281457 41.80619566 6 46 C4 43 4 43 4 41 C3.34 41 2.68 41 2 41 C-1 35 -4 29 -7 23 C-7.66 23 -8.32 23 -9 23 C-10.35712166 24.55855981 -10.35712166 24.55855981 -11.625 26.5 C-12.07101562 27.1496875 -12.51703125 27.799375 -12.9765625 28.46875 C-13.31429688 28.9740625 -13.65203125 29.479375 -14 30 C-14 25.8998855 -11.94501732 23.41179921 -9.8125 20.0625 C-5.79050761 13.58477567 -2.65529309 7.16528839 0 0 Z " fill="#030711" transform="translate(295,459)"/>
<path d="M0 0 C2.62648608 1.11109046 4.87818717 2.24717814 7.3125 3.6875 C8.59866069 4.42337599 9.88641679 5.15647079 11.17578125 5.88671875 C11.80436035 6.24427246 12.43293945 6.60182617 13.08056641 6.97021484 C15.97561166 8.52342025 18.95871092 9.76066486 22 11 C20.9811284 16.99257377 16.17511134 21.22556706 11.625 24.9375 C6.40081926 27.05204935 1.29390444 27.71574243 -4.125 25.9375 C-12.14586655 22.38152934 -16.26364083 16.74821025 -20 9 C-18.89140625 8.51789062 -17.7828125 8.03578125 -16.640625 7.5390625 C-15.17705887 6.90109778 -13.71351856 6.26307384 -12.25 5.625 C-11.15558594 5.14933594 -11.15558594 5.14933594 -10.0390625 4.6640625 C-9.33007812 4.3546875 -8.62109375 4.0453125 -7.890625 3.7265625 C-7.24125977 3.44377441 -6.59189453 3.16098633 -5.92285156 2.86962891 C-3.94497864 2.01703043 -3.94497864 2.01703043 -1.97094727 0.80151367 C-1.32053467 0.53701416 -0.67012207 0.27251465 0 0 Z " fill="#000102" transform="translate(242,524)"/>
<path d="M0 0 C3.1004498 3.44494422 4.89875272 5.65847351 5.25 10.3125 C4.90666379 15.37670903 3.41073029 17.65407357 -0.2109375 21.109375 C-5.06964491 24.40295257 -10.35171692 23.84334465 -16 23 C-19.28104444 21.38039519 -21.34178123 19.31643754 -23 16 C-23.50153947 11.61511208 -23.98198224 7.03466721 -22.0234375 2.9765625 C-17.04291358 -3.2872866 -6.76665769 -4.05999462 0 0 Z " fill="#3570F7" transform="translate(629,427)"/>
<path d="M0 0 C4.78862975 2.80871552 8.76113471 6.49330674 11.84375 11.12890625 C11.84375 11.78890625 11.84375 12.44890625 11.84375 13.12890625 C10.72355469 13.61101562 9.60335937 14.093125 8.44921875 14.58984375 C6.97649595 15.22771095 5.50384335 15.86574026 4.03125 16.50390625 C3.29326172 16.82101562 2.55527344 17.138125 1.79492188 17.46484375 C0.72661133 17.92890625 0.72661133 17.92890625 -0.36328125 18.40234375 C-1.0178833 18.68513184 -1.67248535 18.96791992 -2.34692383 19.25927734 C-4.41947799 20.20363538 -4.41947799 20.20363538 -7.15625 22.12890625 C-11.57598081 21.7775469 -15.28793073 20.4237397 -19.34375 18.69140625 C-20.88095703 18.04365234 -20.88095703 18.04365234 -22.44921875 17.3828125 C-25.15625 16.12890625 -25.15625 16.12890625 -28.15625 14.12890625 C-21.50766465 4.85322031 -12.54026113 -5.06608375 0 0 Z " fill="#000103" transform="translate(251.15625,413.87109375)"/>
<path d="M0 0 C4.08690956 2.99077574 7.14326076 6.39200098 10.25 10.375 C10.95511719 10.21515625 11.66023438 10.0553125 12.38671875 9.890625 C20.52277456 8.42546897 27.75399869 8.91530709 35.25 12.375 C35.25 13.365 35.25 14.355 35.25 15.375 C34.25613281 15.05015625 33.26226562 14.7253125 32.23828125 14.390625 C22.79131204 11.7030228 11.6272931 12.85034417 2.25 15.375 C2.91 14.715 3.57 14.055 4.25 13.375 C5.24 13.375 6.23 13.375 7.25 13.375 C3.72124003 7.53897389 -0.31837808 3.10723036 -6.75 0.375 C-12.23982687 -0.51245322 -16.97982029 0.26205419 -21.82421875 2.9609375 C-25.85661958 5.92184846 -29.50415513 9.88331025 -31.75 14.375 C-26.47 16.685 -21.19 18.995 -15.75 21.375 C-19.76984115 22.71494705 -21.37227925 21.58078256 -25.25 20 C-26.3946875 19.53851563 -27.539375 19.07703125 -28.71875 18.6015625 C-29.7190625 18.19679688 -30.719375 17.79203125 -31.75 17.375 C-38.01774683 15.28575106 -46.83284106 15.34612597 -53.21875 17.0234375 C-58.20154757 19.58039941 -60.58793529 24.04132687 -62.375 29.16796875 C-63.63027039 36.55575804 -61.97820631 45.00576216 -60.75 52.375 C-61.08 51.715 -61.41 51.055 -61.75 50.375 C-66.52365952 53.10280544 -69.29829609 56.07552937 -72.453125 60.5703125 C-73.75 62.375 -73.75 62.375 -75.75 64.375 C-76.44921875 62.66015625 -76.44921875 62.66015625 -76.75 60.375 C-75.45703125 58.12109375 -75.45703125 58.12109375 -73.5625 55.8125 C-72.95019531 55.04808594 -72.33789062 54.28367187 -71.70703125 53.49609375 C-69.75 51.375 -69.75 51.375 -67.64111328 50.02807617 C-65.55186131 48.55053024 -65.55186131 48.55053024 -65.37524414 46.24951172 C-65.42801514 45.44271973 -65.48078613 44.63592773 -65.53515625 43.8046875 C-65.57060547 42.9075 -65.60605469 42.0103125 -65.64257812 41.0859375 C-65.75447451 39.21842545 -65.87153042 37.35121426 -65.99414062 35.484375 C-66.2566924 28.52922989 -64.90509313 23.9962909 -60.75 18.375 C-56.65287607 13.98018829 -52.02190322 12.30050351 -46.09765625 12.01171875 C-41.63547418 11.94181167 -37.20408607 12.11299494 -32.75 12.375 C-32.63011719 11.60285156 -32.51023438 10.83070313 -32.38671875 10.03515625 C-31.25260955 5.29694542 -27.58398954 2.99605604 -23.8125 0.1875 C-15.80192347 -4.55345346 -8.02049569 -5.05845766 0 0 Z " fill="#113079" transform="translate(255.75,413.625)"/>
<path d="M0 0 C0.33 0 0.66 0 1 0 C1.07476562 0.70125 1.14953125 1.4025 1.2265625 2.125 C2.1782559 8.99212104 3.86737272 14.1323725 9 19 C9.66 19 10.32 19 11 19 C11.61488281 17.50146484 11.61488281 17.50146484 12.2421875 15.97265625 C12.7861073 14.66912431 13.33039735 13.36574681 13.875 12.0625 C14.14441406 11.40314453 14.41382813 10.74378906 14.69140625 10.06445312 C16.7734375 5.11328125 16.7734375 5.11328125 19 4 C18.38082372 7.87688786 17.19146301 11.02714562 15.5 14.5625 C12.39394137 21.07258218 11.76916469 26.23206206 11.6875 33.375 C11.65849609 34.21289062 11.62949219 35.05078125 11.59960938 35.9140625 C11.54282224 41.4704649 12.30703198 44.58494326 16 49 C20.58297952 53.27744755 26.08925478 54.49706454 32.27734375 54.30078125 C48.42591963 52.51679224 63.90613005 44.71565115 76 34 C76.66 34.33 77.32 34.66 78 35 C76.95199219 35.83144531 76.95199219 35.83144531 75.8828125 36.6796875 C74.97273438 37.40414062 74.06265625 38.12859375 73.125 38.875 C72.22007812 39.59429688 71.31515625 40.31359375 70.3828125 41.0546875 C67.99734824 42.93560474 67.99734824 42.93560474 66 45 C66.99 45.99 67.98 46.98 69 48 C68.16726562 47.60296875 67.33453125 47.2059375 66.4765625 46.796875 C61.93070485 45.75490313 59.31753214 47.16878284 55.375 49.25 C54.72015625 49.57613281 54.0653125 49.90226563 53.390625 50.23828125 C51.584809 51.14118925 49.79185414 52.06969198 48 53 C47.20851562 53.36609375 46.41703125 53.7321875 45.6015625 54.109375 C43.81088551 54.90794388 43.81088551 54.90794388 43 57 C19.7958747 57.67584831 19.7958747 57.67584831 12.5625 51.25 C9.21556761 47.93167387 8.06834047 43.50600784 7.94165039 38.86035156 C8.01739177 36.57161221 8.13204853 34.2869214 8.25 32 C8.59422732 24.75109634 8.59422732 24.75109634 5.125 18.625 C4.59132812 18.18414062 4.05765625 17.74328125 3.5078125 17.2890625 C1.58792771 15.64771022 0.86777264 14.37803078 0 12 C-0.1953125 8.984375 -0.1953125 8.984375 -0.125 5.75 C-0.10695312 4.67234375 -0.08890625 3.5946875 -0.0703125 2.484375 C-0.04710937 1.66453125 -0.02390625 0.8446875 0 0 Z " fill="#0C2F85" transform="translate(179,479)"/>
<path d="M0 0 C5.02212682 3.34808455 6.99786256 6.1732087 8.58984375 11.984375 C9.08564089 15.62966447 8.73304892 18.96165284 8.4375 22.625 C8.19431913 26.46432978 8.19431913 26.46432978 9 30 C11.75249751 32.80078694 14.49572234 34.42933228 17.93359375 36.30859375 C21.93466069 38.51555169 24.72781917 41.02594668 27 45 C28.16653266 49.66613062 28.09789568 54.20311148 28 59 C27.67 59 27.34 59 27 59 C26.92523438 58.3709375 26.85046875 57.741875 26.7734375 57.09375 C25.54661011 49.10734426 22.86327177 44.08939872 16.5234375 39.01953125 C12.80416327 36.35898848 9.10263259 34.0150816 5 32 C5.05220703 30.06447266 5.05220703 30.06447266 5.10546875 28.08984375 C5.13362342 26.37240894 5.16092177 24.65495993 5.1875 22.9375 C5.21263672 22.08994141 5.23777344 21.24238281 5.26367188 20.36914062 C5.34884033 13.01626383 3.83604921 7.75720144 -1 2 C-0.67 1.34 -0.34 0.68 0 0 Z " fill="#0F2452" transform="translate(291,427)"/>
<path d="M0 0 C8.58 0 17.16 0 26 0 C26 10.89 26 21.78 26 33 C25.67 33 25.34 33 25 33 C24.505 17.655 24.505 17.655 24 2 C16.74 2 9.48 2 2 2 C2 13.22 2 24.44 2 36 C1.34 36 0.68 36 0 36 C0 24.12 0 12.24 0 0 Z " fill="#437BF7" transform="translate(773,430)"/>
<path d="M0 0 C0.66 0.33 1.32 0.66 2 1 C2 1.66 2 2.32 2 3 C1.401875 3.53625 0.80375 4.0725 0.1875 4.625 C-3.72130096 8.86884104 -5.00262712 12.72228802 -4.99609375 18.38671875 C-4.60094896 24.28880202 -3.97258844 30.16446938 -3 36 C-3.33 35.34 -3.66 34.68 -4 34 C-8.77365952 36.72780544 -11.54829609 39.70052937 -14.703125 44.1953125 C-16 46 -16 46 -18 48 C-18.69921875 46.28515625 -18.69921875 46.28515625 -19 44 C-17.70703125 41.74609375 -17.70703125 41.74609375 -15.8125 39.4375 C-15.20019531 38.67308594 -14.58789062 37.90867187 -13.95703125 37.12109375 C-12 35 -12 35 -9.89111328 33.65307617 C-7.80186131 32.17553024 -7.80186131 32.17553024 -7.62524414 29.87451172 C-7.67801514 29.06771973 -7.73078613 28.26092773 -7.78515625 27.4296875 C-7.82060547 26.5325 -7.85605469 25.6353125 -7.89257812 24.7109375 C-8.00447451 22.84342545 -8.12153042 20.97621426 -8.24414062 19.109375 C-8.50207873 12.27644865 -7.24748386 7.46607956 -3 2 C-2.01 1.34 -1.02 0.68 0 0 Z " fill="#0D2A66" transform="translate(198,430)"/>
<path d="M0 0 C0.33 0 0.66 0 1 0 C1.78776497 8.67791891 1.70842357 14.86072493 -3.77734375 21.8671875 C-6.16892694 24.16209861 -8.5344091 25.48500252 -11.4375 27.0625 C-14.12952978 28.55670598 -14.12952978 28.55670598 -16 31 C-16.94424535 35.38664281 -16.51622208 39.79835042 -16.15625 44.234375 C-16 48 -16 48 -18 51 C-17.67 48.36 -17.34 45.72 -17 43 C-17.66 43 -18.32 43 -19 43 C-19.66 36.73 -20.32 30.46 -21 24 C-20.01 25.32 -19.02 26.64 -18 28 C-10.88260868 23.82446376 -4.52795031 19.23868679 -2.125 11 C-2.08375 10.34 -2.0425 9.68 -2 9 C-1.67 9 -1.34 9 -1 9 C-1.020625 7.700625 -1.04125 6.40125 -1.0625 5.0625 C-1.08399454 3.70834367 -1.07148199 2.35243917 -1 1 C-0.67 0.67 -0.34 0.34 0 0 Z " fill="#081B4C" transform="translate(319,476)"/>
<path d="M0 0 C0.99 0.495 0.99 0.495 2 1 C1.30132812 1.55429687 0.60265625 2.10859375 -0.1171875 2.6796875 C-1.02726562 3.40414062 -1.93734375 4.12859375 -2.875 4.875 C-3.77992188 5.59429688 -4.68484375 6.31359375 -5.6171875 7.0546875 C-8.00265176 8.93560474 -8.00265176 8.93560474 -10 11 C-9.01 11.99 -8.02 12.98 -7 14 C-7.83273438 13.60296875 -8.66546875 13.2059375 -9.5234375 12.796875 C-14.06929515 11.75490313 -16.68246786 13.16878284 -20.625 15.25 C-21.27984375 15.57613281 -21.9346875 15.90226563 -22.609375 16.23828125 C-24.415191 17.14118925 -26.20814586 18.06969198 -28 19 C-29.18722656 19.54914062 -29.18722656 19.54914062 -30.3984375 20.109375 C-32.18911449 20.90794388 -32.18911449 20.90794388 -33 23 C-35.89608593 23.05413245 -38.79115195 23.09373641 -41.6875 23.125 C-42.50412109 23.14175781 -43.32074219 23.15851562 -44.16210938 23.17578125 C-50.67153322 23.22848914 -54.8648157 22.33761721 -59.8125 17.875 C-60.41707031 17.33617187 -61.02164063 16.79734375 -61.64453125 16.2421875 C-62.31548828 15.62730469 -62.31548828 15.62730469 -63 15 C-62.67 14.34 -62.34 13.68 -62 13 C-61.13375 13.78375 -60.2675 14.5675 -59.375 15.375 C-54.60773034 19.29771839 -49.932047 20.49774022 -43.72265625 20.30078125 C-27.57408037 18.51679224 -12.09386995 10.71565115 0 0 Z " fill="#153790" transform="translate(255,513)"/>
<path d="M0 0 C3.36041075 1.39597363 4.83359754 2.85246887 6.8125 5.875 C10.57880032 11.0760814 14.54843881 13.76652713 21 14.875 C26.04042212 15.24333854 30.08664593 14.51256041 34.14453125 11.3046875 C35.55409354 10.05005008 36.94129888 8.76967299 38.30078125 7.4609375 C40 6 40 6 42 6 C40.84463265 10.91031124 37.9629596 13.00685953 34.01171875 15.7734375 C28.66476011 19.0335249 21.97022311 18.61879648 16 17.375 C8.67936879 14.01971069 3.44425331 9.35215611 0 2 C0 1.34 0 0.68 0 0 Z " fill="#011457" transform="translate(221,535)"/>
<path d="M0 0 C2.78114856 2.78114856 3.04345835 5.72686045 3.92578125 9.4921875 C5.38424321 12.89703323 6.8475261 14.0390123 10 16 C13.0534158 17.13590628 16.15477959 17.95745455 19.3125 18.75 C20.14845703 18.97042969 20.98441406 19.19085938 21.84570312 19.41796875 C23.89424225 19.95644189 25.94675489 20.47975929 28 21 C28 21.66 28 22.32 28 23 C26.75863281 23.31453125 25.51726562 23.6290625 24.23828125 23.953125 C22.59618207 24.3847625 20.95426434 24.81709067 19.3125 25.25 C18.49587891 25.45496094 17.67925781 25.65992188 16.83789062 25.87109375 C12.10056636 27.13693748 8.4342265 28.30560482 5 32 C3.56061978 34.99828732 3.56061978 34.99828732 2.6875 38.25 C2.36136719 39.32765625 2.03523437 40.4053125 1.69921875 41.515625 C1.46847656 42.33546875 1.23773438 43.1553125 1 44 C0.67 44 0.34 44 0 44 C0.27013073 37.92205857 0.97300594 33.83239287 5 29 C8.27724954 26.08108298 11.5636575 25.02653932 15.75 23.8125 C16.92046875 23.46832031 18.0909375 23.12414062 19.296875 22.76953125 C20.18890625 22.51558594 21.0809375 22.26164062 22 22 C20.97519531 21.70867187 19.95039063 21.41734375 18.89453125 21.1171875 C17.53352937 20.70419383 16.17286979 20.29007097 14.8125 19.875 C14.13896484 19.68679688 13.46542969 19.49859375 12.77148438 19.3046875 C7.49716209 17.65806981 5.13450123 15.56140105 2 11 C0.5659987 7.03942499 0 4.22068341 0 0 Z " fill="#244EAE" transform="translate(250,460)"/>
<path d="M0 0 C-1.41396902 0.50757862 -2.83131729 1.00574925 -4.25 1.5 C-5.43335938 1.91765625 -5.43335938 1.91765625 -6.640625 2.34375 C-9 3 -9 3 -13 3 C-13 3.66 -13 4.32 -13 5 C-11.865625 5.0825 -10.73125 5.165 -9.5625 5.25 C-3.51904263 6.02287554 1.86502405 8.03357478 6.375 12.1875 C9.35354179 17.34266848 11.58487505 22.95629116 11 29 C11.66 29 12.32 29 13 29 C13.33 28.01 13.66 27.02 14 26 C13.67 28.31 13.34 30.62 13 33 C12.34 33 11.68 33 11 33 C10.84442627 32.44538086 10.68885254 31.89076172 10.52856445 31.31933594 C9.80807781 28.7906261 9.06064871 26.2706575 8.3125 23.75 C8.06822266 22.87730469 7.82394531 22.00460937 7.57226562 21.10546875 C6.02975345 15.98979546 4.91370408 12.67049135 0 10 C-3.06093191 8.88432988 -6.15427783 8.04267139 -9.3125 7.25 C-10.14845703 7.02957031 -10.98441406 6.80914062 -11.84570312 6.58203125 C-13.89424225 6.04355811 -15.94675489 5.52024071 -18 5 C-18 4.34 -18 3.68 -18 3 C-15.75376301 2.30030318 -13.50283586 1.61564957 -11.25 0.9375 C-9.99703125 0.55464844 -8.7440625 0.17179687 -7.453125 -0.22265625 C-4.3261992 -0.92656828 -2.90533954 -1.16653785 0 0 Z " fill="#244EAE" transform="translate(236,478)"/>
<path d="M0 0 C0.86931152 0.01047363 1.73862305 0.02094727 2.63427734 0.03173828 C3.57529297 0.03818359 4.51630859 0.04462891 5.48583984 0.05126953 C6.47068359 0.06802734 7.45552734 0.08478516 8.47021484 0.10205078 C9.46279297 0.11107422 10.45537109 0.12009766 11.47802734 0.12939453 C13.93399618 0.15300962 16.38948653 0.18594279 18.84521484 0.22705078 C18.90329204 4.31032435 18.93883733 8.39349161 18.97021484 12.47705078 C18.98697266 13.63591797 19.00373047 14.79478516 19.02099609 15.98876953 C19.02744141 17.10380859 19.03388672 18.21884766 19.04052734 19.36767578 C19.05100098 20.3940918 19.06147461 21.42050781 19.07226562 22.47802734 C18.84521484 25.22705078 18.84521484 25.22705078 16.84521484 29.22705078 C16.84521484 20.31705078 16.84521484 11.40705078 16.84521484 2.22705078 C9.91521484 2.22705078 2.98521484 2.22705078 -4.15478516 2.22705078 C-2.15478516 0.22705078 -2.15478516 0.22705078 0 0 Z " fill="#4A7FF7" transform="translate(1046.15478515625,429.77294921875)"/>
<path d="M0 0 C8.2061054 3.5811054 8.2061054 3.5811054 10.75 6.125 C6.68723248 5.46922862 3.23344138 4.12815855 -0.5625 2.5625 C-10.24293862 -0.96693284 -20.46691878 -1.63423954 -30.25 2.125 C-29.31886493 -0.20283768 -28.68812571 -1.59298805 -26.55078125 -2.96875 C-17.42975366 -6.56141282 -8.51104918 -3.65669449 0 0 Z " fill="#1E459B" transform="translate(229.25,429.875)"/>
<path d="M0 0 C1.22602512 3.67807537 0.70295577 5.88243927 0.0625 9.6875 C-0.13214844 10.86699219 -0.32679688 12.04648437 -0.52734375 13.26171875 C-0.68332031 14.16535156 -0.83929688 15.06898438 -1 16 C0.07483643 15.99214478 0.07483643 15.99214478 1.17138672 15.98413086 C4.40591562 15.96339333 7.64043056 15.95035016 10.875 15.9375 C12.56689453 15.92493164 12.56689453 15.92493164 14.29296875 15.91210938 C15.36933594 15.90888672 16.44570313 15.90566406 17.5546875 15.90234375 C18.54968262 15.89710693 19.54467773 15.89187012 20.56982422 15.88647461 C23 16 23 16 25 17 C25 14.36 25 11.72 25 9 C25.33 9 25.66 9 26 9 C26 11.97 26 14.94 26 18 C16.43 18 6.86 18 -3 18 C-1.875 4.5 -1.875 4.5 0 0 Z " fill="#467CF6" transform="translate(360,494)"/>
<path d="M0 0 C6.4753546 -0.5332645 9.41139789 1.87014951 14.36328125 5.734375 C22.64725834 12.85245902 22.64725834 12.85245902 23.35546875 19.171875 C23.37290141 22.14239996 23.26617404 25.04251072 23 28 C22.67 28 22.34 28 22 28 C21.92523438 27.3709375 21.85046875 26.741875 21.7734375 26.09375 C20.55117382 18.13705311 17.89567193 13.06000729 11.5234375 8.0546875 C9.04963834 6.3106226 6.53534893 4.65257892 4 3 C2.65852607 2.01094719 1.32228487 1.0145642 0 0 Z " fill="#092156" transform="translate(296,458)"/>
<path d="M0 0 C1.5631897 0.00785522 1.5631897 0.00785522 3.15795898 0.01586914 C4.28266602 0.0190918 5.40737305 0.02231445 6.56616211 0.02563477 C7.75016602 0.03401367 8.93416992 0.04239258 10.15405273 0.05102539 C11.34192383 0.05553711 12.52979492 0.06004883 13.75366211 0.06469727 C16.69967499 0.07652864 19.64558954 0.09301252 22.59155273 0.11352539 C23.37808675 3.51654294 23.67271923 6.49343583 23.47045898 9.97680664 C23.42211914 10.86303711 23.3737793 11.74926758 23.32397461 12.66235352 C23.26790039 13.57436523 23.21182617 14.48637695 23.15405273 15.42602539 C23.1018457 16.35737305 23.04963867 17.2887207 22.99584961 18.24829102 C22.86673793 20.53708892 22.73179859 22.82538725 22.59155273 25.11352539 C22.26155273 25.11352539 21.93155273 25.11352539 21.59155273 25.11352539 C21.59155273 17.52352539 21.59155273 9.93352539 21.59155273 2.11352539 C14.00155273 2.11352539 6.41155273 2.11352539 -1.40844727 2.11352539 C-1.73844727 3.10352539 -2.06844727 4.09352539 -2.40844727 5.11352539 C-2.97094727 3.17602539 -2.97094727 3.17602539 -3.40844727 1.11352539 C-2.40844727 0.11352539 -2.40844727 0.11352539 0 0 Z " fill="#4F83F6" transform="translate(948.408447265625,434.886474609375)"/>
<path d="M0 0 C0.391875 0.53625 0.78375 1.0725 1.1875 1.625 C1.785625 2.40875 2.38375 3.1925 3 4 C3.721875 5.010625 4.44375 6.02125 5.1875 7.0625 C9.00215371 11.58738954 13.78245101 12.76240547 19.5 13.375 C24.53272013 12.83577999 29.06867083 12.09927084 32.6171875 8.2421875 C33.82853915 6.55177023 34.92510073 4.78030192 36 3 C36.495 4.485 36.495 4.485 37 6 C33.86396796 10.70404807 30.64737471 13.70248641 25 15 C17.07816756 16.09518421 10.48190158 14.82234236 4 10 C1.37432329 6.89939469 0 4.1449671 0 0 Z " fill="#4077F8" transform="translate(975,498)"/>
<path d="M0 0 C4.01864152 1.29000771 7.87904886 2.75834417 11.75 4.4375 C17.07727494 6.68827366 22.42295488 8.48235277 28 10 C28 10.66 28 11.32 28 12 C26.98679687 11.96519531 26.98679687 11.96519531 25.953125 11.9296875 C25.06109375 11.91164063 24.1690625 11.89359375 23.25 11.875 C21.92742187 11.84019531 21.92742187 11.84019531 20.578125 11.8046875 C17.8864142 12.00860498 16.30095026 12.63448279 14 14 C14.66 12.02 15.32 10.04 16 8 C15.43152344 7.82984375 14.86304688 7.6596875 14.27734375 7.484375 C9.0677886 5.84932263 4.64636859 3.86690828 0 1 C0 0.67 0 0.34 0 0 Z " fill="#0F3289" transform="translate(248,527)"/>
<path d="M0 0 C0.66 0.33 1.32 0.66 2 1 C0.4840625 2.2375 0.4840625 2.2375 -1.0625 3.5 C-4.46541766 6.40993965 -7.33858342 9.57817387 -10.2421875 12.9765625 C-14.34491076 17.69925283 -18.37735236 22.10348455 -24 25 C-22.52936795 21.59802716 -20.62728693 19.38183128 -18.0078125 16.77734375 C-17.22019531 15.99166016 -16.43257812 15.20597656 -15.62109375 14.39648438 C-14.79738281 13.58501953 -13.97367188 12.77355469 -13.125 11.9375 C-12.30902344 11.12216797 -11.49304688 10.30683594 -10.65234375 9.46679688 C-7.23255205 6.07210968 -3.92216221 2.81487761 0 0 Z " fill="#1B3B82" transform="translate(233,442)"/>
<path d="M0 0 C0.99 0.33 1.98 0.66 3 1 C3.03738281 2.00160156 3.07476562 3.00320313 3.11328125 4.03515625 C3.56963941 15.96360492 3.56963941 15.96360492 9.6875 25.9375 C10.450625 26.618125 11.21375 27.29875 12 28 C7.53853997 26.59782685 4.96855728 24.6104075 2 21 C-0.9654357 14.36307247 -0.17824822 7.13983147 0 0 Z " fill="#092053" transform="translate(187,506)"/>
<path d="M0 0 C0.33 0.66 0.66 1.32 1 2 C0.01 2.02578125 -0.98 2.0515625 -2 2.078125 C-10.79508309 2.41215778 -18.10544054 2.79797532 -24.375 9.5625 C-24.91125 10.366875 -25.4475 11.17125 -26 12 C-26.66 12.99 -27.32 13.98 -28 15 C-28.4375 12.375 -28.4375 12.375 -28 9 C-20.77836557 -0.20924023 -10.82880364 -0.44569771 0 0 Z " fill="#4F83F8" transform="translate(1091,453)"/>
<path d="M0 0 C0.33 0 0.66 0 1 0 C1.07476563 0.81984375 1.14953125 1.6396875 1.2265625 2.484375 C1.89590207 9.26218496 1.89590207 9.26218496 5.6875 14.625 C9.12777346 16.05303804 12.38121299 17.13149112 16 18 C16 18.99 16 19.98 16 21 C16.99 21.33 17.98 21.66 19 22 C18.01 22.33 17.02 22.66 16 23 C15.67 21.68 15.34 20.36 15 19 C14.67 19.66 14.34 20.32 14 21 C11.525 20.01 11.525 20.01 9 19 C8.34 20.32 7.68 21.64 7 23 C6.67 22.01 6.34 21.02 6 20 C6.66 19.01 7.32 18.02 8 17 C7.236875 16.7525 6.47375 16.505 5.6875 16.25 C2.62863342 14.82727136 1.69638276 13.87990561 0 11 C-0.29296875 8.203125 -0.29296875 8.203125 -0.1875 5.25 C-0.16042969 4.26515625 -0.13335938 3.2803125 -0.10546875 2.265625 C-0.07066406 1.51796875 -0.03585937 0.7703125 0 0 Z " fill="#4179F9" transform="translate(801,469)"/>
<path d="M0 0 C5.11263852 0.02942526 8.78984214 1.18437428 13.4375 3.25 C13.4375 4.24 13.4375 5.23 13.4375 6.25 C12.45652344 5.93289063 11.47554688 5.61578125 10.46484375 5.2890625 C6.31823218 4.10431634 2.29210863 3.8134915 -2 3.625 C-3.09731445 3.56699219 -3.09731445 3.56699219 -4.21679688 3.5078125 C-5.99833532 3.41466016 -7.78038122 3.33129714 -9.5625 3.25 C-8.923125 2.940625 -8.28375 2.63125 -7.625 2.3125 C-3.25167031 0.05957259 -3.25167031 0.05957259 0 0 Z " fill="#193A84" transform="translate(277.5625,422.75)"/>
<path d="M0 0 C7.92 0 15.84 0 24 0 C23.67 0.66 23.34 1.32 23 2 C15.74 2 8.48 2 1 2 C1 2.99 1 3.98 1 5 C0.34 5 -0.32 5 -1 5 C-0.67 3.35 -0.34 1.7 0 0 Z " fill="#4D85F8" transform="translate(578,430)"/>
<path d="M0 0 C0.33 0 0.66 0 1 0 C1 12.21 1 24.42 1 37 C-0.98 37.495 -0.98 37.495 -3 38 C-2.67 35.36 -2.34 32.72 -2 30 C-1.67 30 -1.34 30 -1 30 C-0.67 20.1 -0.34 10.2 0 0 Z " fill="#2563FD" transform="translate(799,430)"/>
<path d="M0 0 C0.99 0.33 1.98 0.66 3 1 C3 5.29 3 9.58 3 14 C2.01 13.67 1.02 13.34 0 13 C-0.66 13.99 -1.32 14.98 -2 16 C-1.85764543 14.27054347 -1.71095618 12.54144346 -1.5625 10.8125 C-1.48128906 9.84957031 -1.40007812 8.88664062 -1.31640625 7.89453125 C-1.02333849 5.21350398 -0.57296246 2.6337014 0 0 Z " fill="#2362F6" transform="translate(432,459)"/>
<path d="M0 0 C0.66 0.33 1.32 0.66 2 1 C1.43410156 1.77085937 0.86820313 2.54171875 0.28515625 3.3359375 C-0.44832031 4.33882813 -1.18179688 5.34171875 -1.9375 6.375 C-3.03384766 7.87160156 -3.03384766 7.87160156 -4.15234375 9.3984375 C-5.9779569 11.82817109 -5.9779569 11.82817109 -7 14 C-8.65 13.67 -10.3 13.34 -12 13 C-10.68 12.67 -9.36 12.34 -8 12 C-7.938125 11.278125 -7.87625 10.55625 -7.8125 9.8125 C-6.74812129 6.12811217 -4.8134208 4.53894072 -2 2 C-1.34 1.34 -0.68 0.68 0 0 Z " fill="#091F5B" transform="translate(231,414)"/>
<path d="M0 0 C0 4.62 0 9.24 0 14 C-0.99 13.67 -1.98 13.34 -3 13 C-3 9.04 -3 5.08 -3 1 C-1 0 -1 0 0 0 Z " fill="#2A67F9" transform="translate(466,476)"/>
<path d="M0 0 C0.99386719 0.10183594 1.98773438 0.20367187 3.01171875 0.30859375 C3.77097656 0.39238281 4.53023437 0.47617187 5.3125 0.5625 C5.3125 0.8925 5.3125 1.2225 5.3125 1.5625 C4.52746094 1.66046875 3.74242187 1.7584375 2.93359375 1.859375 C-3.51848609 2.77770784 -8.28747334 3.88066364 -13.6875 7.5625 C-12.39739008 4.68456249 -11.11388194 2.60066083 -8.6875 0.5625 C-5.3763987 -0.54120043 -3.44001051 -0.36423641 0 0 Z " fill="#163E99" transform="translate(243.6875,411.4375)"/>
<path d="M0 0 C0.99 0.33 1.98 0.66 3 1 C3 5.29 3 9.58 3 14 C-0.06188727 9.91748364 -0.37243503 9.43502071 -0.1875 4.75 C-0.16042969 3.85796875 -0.13335938 2.9659375 -0.10546875 2.046875 C-0.07066406 1.37140625 -0.03585937 0.6959375 0 0 Z " fill="#2B64F8" transform="translate(606,454)"/>
<path d="M0 0 C4.21073233 1.50383297 5.83237117 4.20664956 8 8 C8 8.99 8 9.98 8 11 C4.50892621 9.83630874 4.14777237 9.11026462 2.3125 6.0625 C1.87550781 5.35222656 1.43851563 4.64195312 0.98828125 3.91015625 C0 2 0 2 0 0 Z " fill="#021347" transform="translate(221,535)"/>
<path d="M0 0 C0.66 0 1.32 0 2 0 C2.33 2.64 2.66 5.28 3 8 C2.67 7.01 2.34 6.02 2 5 C1.34 5 0.68 5 0 5 C-0.66 8.3 -1.32 11.6 -2 15 C-2.33 15 -2.66 15 -3 15 C-2.44854729 9.76119922 -1.57077907 5.02649303 0 0 Z " fill="#234DAD" transform="translate(247,452)"/>
<path d="M0 0 C3.38388291 1.45023553 5.72572644 3.08168437 8 6 C8.390625 9.015625 8.390625 9.015625 8.25 12.25 C8.21390625 13.32765625 8.1778125 14.4053125 8.140625 15.515625 C8.07101562 16.74539063 8.07101562 16.74539063 8 18 C7.67 18 7.34 18 7 18 C6.91363281 17.3709375 6.82726562 16.741875 6.73828125 16.09375 C5.69437014 9.73451171 3.80155764 5.19449479 0 0 Z " fill="#10378E" transform="translate(311,468)"/>
<path d="M0 0 C4.22797927 2.90673575 4.22797927 2.90673575 6 5 C6.375 8.8125 6.375 8.8125 6 12 C3.51137122 8.76478258 1.24578442 5.40739705 -1 2 C-0.67 1.34 -0.34 0.68 0 0 Z " fill="#092667" transform="translate(291,427)"/>
<path d="M0 0 C-2 2 -2 2 -5.0390625 2.1953125 C-6.22242188 2.17210937 -7.40578125 2.14890625 -8.625 2.125 C-9.81351562 2.10695313 -11.00203125 2.08890625 -12.2265625 2.0703125 C-13.14179688 2.04710937 -14.05703125 2.02390625 -15 2 C-15 1.34 -15 0.68 -15 0 C-9.76528314 -0.75612577 -5.22745859 -1.2063366 0 0 Z " fill="#000D58" transform="translate(291,537)"/>
<path d="M0 0 C0.99 0 1.98 0 3 0 C3.391875 1.051875 3.78375 2.10375 4.1875 3.1875 C5.76402557 6.91658932 7.96895425 9.29663487 11 12 C6.558275 10.60402929 3.98459152 8.56492876 1 5 C0.1875 2.1875 0.1875 2.1875 0 0 Z " fill="#021441" transform="translate(188,522)"/>
<path d="M0 0 C2.6875 -0.3125 2.6875 -0.3125 6 0 C8.57285724 2.172635 10.48996919 3.97993838 12 7 C7.69235185 5.43358249 3.93828536 3.31663844 0 1 C0 0.67 0 0.34 0 0 Z " fill="#103388" transform="translate(296,458)"/>
<path d="M0 0 C0.66 0.33 1.32 0.66 2 1 C1.45730469 1.36351562 0.91460938 1.72703125 0.35546875 2.1015625 C-4.15418557 5.27050878 -6.97574073 7.68631943 -9 13 C-9.33 13 -9.66 13 -10 13 C-10.4375 10.375 -10.4375 10.375 -10 7 C-7.156443 3.67487286 -4.14828162 1.38276054 0 0 Z " fill="#437CF7" transform="translate(1073,455)"/>
<path d="M0 0 C0.60328125 0.08378906 1.2065625 0.16757812 1.828125 0.25390625 C3.02695312 0.40666016 3.02695312 0.40666016 4.25 0.5625 C5.03890625 0.66691406 5.8278125 0.77132813 6.640625 0.87890625 C9.00532874 1.00027349 10.7511037 0.69633257 13 0 C11.4375 2.0625 11.4375 2.0625 9 4 C5.375 3.9375 5.375 3.9375 2 3 C1.34 2.01 0.68 1.02 0 0 Z " fill="#497CF8" transform="translate(998,491)"/>
<path d="M0 0 C0.66 0.66 1.32 1.32 2 2 C1.625 4.125 1.625 4.125 1 6 C1 5.34 1 4.68 1 4 C-2.40739705 6.24578442 -5.76478258 8.51137122 -9 11 C-7.8829081 7.98385187 -6.3874224 6.35491331 -3.9375 4.375 C-0.99175287 2.32880603 -0.99175287 2.32880603 0 0 Z " fill="#113B99" transform="translate(193,460)"/>
<path d="M0 0 C0.66 0 1.32 0 2 0 C1.67 3.3 1.34 6.6 1 10 C-0.32 10.33 -1.64 10.66 -3 11 C-2.01 7.37 -1.02 3.74 0 0 Z " fill="#0B296F" transform="translate(300,519)"/>
<path d="M0 0 C1.32 0.33 2.64 0.66 4 1 C0.67692308 5.8 0.67692308 5.8 -2.75 6.8125 C-3.4925 6.874375 -4.235 6.93625 -5 7 C-3.35 4.69 -1.7 2.38 0 0 Z " fill="#011A5B" transform="translate(313,494)"/>
<path d="M0 0 C2.31 0.33 4.62 0.66 7 1 C7 1.99 7 2.98 7 4 C7.99 4.33 8.98 4.66 10 5 C9.01 5.33 8.02 5.66 7 6 C6.67 4.68 6.34 3.36 6 2 C5.67 2.66 5.34 3.32 5 4 C2.525 3.01 2.525 3.01 0 2 C0 1.34 0 0.68 0 0 Z " fill="#5183F8" transform="translate(810,486)"/>
<path d="M0 0 C0.33 0 0.66 0 1 0 C1.33 2.97 1.66 5.94 2 9 C0.68 9 -0.64 9 -2 9 C-1.125 1.125 -1.125 1.125 0 0 Z " fill="#071842" transform="translate(298,449)"/>
<path d="M0 0 C0.33 0 0.66 0 1 0 C1 3.96 1 7.92 1 12 C-2.375 7.5 -2.375 7.5 -2 3 C-1.34 3 -0.68 3 0 3 C0 2.01 0 1.02 0 0 Z " fill="#2253F8" transform="translate(579,432)"/>
<path d="M0 0 C1.051875 0.78375 2.10375 1.5675 3.1875 2.375 C6.01696802 4.40508579 8.67338936 5.89112979 12 7 C10.02 7.99 10.02 7.99 8 9 C6.66079162 7.88200014 5.32877444 6.75538103 4 5.625 C2.88625 4.68527344 2.88625 4.68527344 1.75 3.7265625 C1.1725 3.15679688 0.595 2.58703125 0 2 C0 1.34 0 0.68 0 0 Z " fill="#032077" transform="translate(192,526)"/>
<path d="M0 0 C-1.144604 3.43381201 -2.72594464 4.58572759 -5.5 6.79296875 C-7.11655494 8.0937903 -8.57342089 9.4941665 -10 11 C-8.73396788 6.69549079 -5.08358566 0 0 0 Z " fill="#3F7CF7" transform="translate(649,457)"/>
<path d="M0 0 C1.33597652 0.80814651 2.668725 1.62163181 4 2.4375 C5.11375 3.11619141 5.11375 3.11619141 6.25 3.80859375 C6.8275 4.20175781 7.405 4.59492187 8 5 C8 5.33 8 5.66 8 6 C3.50347222 6.36458333 3.50347222 6.36458333 1.1875 4.6875 C0 3 0 3 0 0 Z " fill="#03216B" transform="translate(229,544)"/>
<path d="M0 0 C0.33 0.66 0.66 1.32 1 2 C3.35599235 2.46751788 3.35599235 2.46751788 6.0625 2.625 C7.44115234 2.73714844 7.44115234 2.73714844 8.84765625 2.8515625 C9.55792969 2.90054687 10.26820313 2.94953125 11 3 C7.54754176 5.30163882 6.05261287 5.34490322 2 5 C1.34 4.34 0.68 3.68 0 3 C0 2.01 0 1.02 0 0 Z " fill="#487FF7" transform="translate(824,473)"/>
<path d="M0 0 C7.75 -0.125 7.75 -0.125 10 1 C10 1.99 10 2.98 10 4 C6.7 3.01 3.4 2.02 0 1 C0 0.67 0 0.34 0 0 Z " fill="#13368B" transform="translate(281,425)"/>
<path d="M0 0 C6.75 1.875 6.75 1.875 9 3 C9 3.66 9 4.32 9 5 C2.25 3.375 2.25 3.375 0 0 Z " fill="#3060F8" transform="translate(804,505)"/>
<path d="M0 0 C0.66 0.33 1.32 0.66 2 1 C2 3 2 3 0.1875 4.9375 C-0.534375 5.618125 -1.25625 6.29875 -2 7 C-2.5775 7.5775 -3.155 8.155 -3.75 8.75 C-4.36875 9.36875 -4.36875 9.36875 -5 10 C-3.66511872 6.40608886 -2.03977277 3.24509304 0 0 Z " fill="#14388A" transform="translate(198,430)"/>
<path d="M0 0 C2.00720923 0.28674418 4.0085944 0.61866701 6 1 C5.67 1.66 5.34 2.32 5 3 C3.68 3 2.36 3 1 3 C-1.20067421 3.93283296 -1.20067421 3.93283296 -3 5 C-1.125 1.125 -1.125 1.125 0 0 Z " fill="#417AF9" transform="translate(512,488)"/>
<path d="M0 0 C1.32 1.65 2.64 3.3 4 5 C3.34 6.32 2.68 7.64 2 9 C1.34 8.34 0.68 7.68 0 7 C0.66 7 1.32 7 2 7 C1.01 5.02 0.02 3.04 -1 1 C-0.67 0.67 -0.34 0.34 0 0 Z " fill="#4670F8" transform="translate(699,464)"/>
<path d="M0 0 C2.9375 0.375 2.9375 0.375 6 1 C6.33 1.66 6.66 2.32 7 3 C6.34 3.66 5.68 4.32 5 5 C3.35 3.35 1.7 1.7 0 0 Z " fill="#2865F7" transform="translate(502,469)"/>
</svg>
